<?xml version="1.0" encoding="UTF-8" standalone="no"?>
<svg width="235px" height="80px" viewBox="0 0 235 80" version="1.1" xmlns="http://www.w3.org/2000/svg" xmlns:xlink="http://www.w3.org/1999/xlink">
    <!-- Generator: Sketch 50.2 (55047) - http://www.bohemiancoding.com/sketch -->
    <title>Group 6</title>
    <desc>Created with Sketch.</desc>
    <defs></defs>
    <g id="Website" stroke="none" stroke-width="1" fill="none" fill-rule="evenodd">
        <g id="Mentorship" transform="translate(-179.000000, -2093.000000)">
            <g id="Group-6" transform="translate(179.000000, 2093.000000)">
                <rect id="Rectangle-2" fill="#FFFFFF" x="0" y="0" width="235" height="80"></rect>
                <g id="facebook-1" transform="translate(44.000000, 25.000000)" fill="#3B5998" fill-rule="nonzero">
                    <g id="Group">
                        <path d="M76.3779545,14.7252273 C75.1615909,14.7252273 74.2847727,15.1240909 73.3956818,15.5304545 L73.3956818,24.7254545 C74.2472727,24.8065909 74.7354545,24.8065909 75.5434091,24.8065909 C78.4629545,24.8065909 78.8631818,23.4695455 78.8631818,21.6027273 L78.8631818,17.2111364 C78.8631818,15.8325 78.4056818,14.7252273 76.3779545,14.7252273 Z M56.9884091,14.2234091 C54.9627273,14.2234091 54.5004545,15.3354545 54.5004545,16.7127273 L54.5004545,17.4865909 L59.4736364,17.4865909 L59.4736364,16.7127273 C59.4736364,15.3354545 59.0113636,14.2234091 56.9884091,14.2234091 Z M19.4270455,23.7940909 C19.4270455,24.8836364 19.9411364,25.4495455 21.0756818,25.4495455 C22.2927273,25.4495455 23.0134091,25.0527273 23.9018182,24.645 L23.9018182,22.4638636 L21.2406818,22.4638636 C19.9806818,22.4638636 19.4270455,22.6984091 19.4270455,23.7940909 Z M95.2390909,14.7252273 C93.21,14.7252273 92.5070455,15.8325 92.5070455,17.2111364 L92.5070455,22.2422727 C92.5070455,23.6243182 93.21,24.735 95.2390909,24.735 C97.2627273,24.735 97.9711364,23.6243182 97.9711364,22.2422727 L97.9711364,17.2111364 C97.9704545,15.8325 97.2620455,14.7252273 95.2390909,14.7252273 Z M9.48340909,29.4354545 L3.51886364,29.4354545 L3.51886364,14.9986364 L0.538636364,14.9986364 L0.538636364,10.0240909 L3.51954545,10.0240909 L3.51954545,7.03636364 C3.51954545,2.9775 5.20159091,0.564545455 9.9825,0.564545455 L13.9629545,0.564545455 L13.9629545,5.54045455 L11.475,5.54045455 C9.61363636,5.54045455 9.49090909,6.23590909 9.49090909,7.53340909 L9.48340909,10.0234091 L13.9902273,10.0234091 L13.4631818,14.9979545 L9.48340909,14.9979545 L9.48340909,29.4354545 Z M29.8677273,29.4729545 L24.8965909,29.4729545 L24.6818182,28.2156818 C22.4120455,29.4729545 20.3863636,29.6768182 19.05,29.6768182 C15.4043182,29.6768182 13.4638636,27.2413636 13.4638636,23.8731818 C13.4638636,19.8995455 15.7281818,18.4813636 19.7788636,18.4813636 L23.9018182,18.4813636 L23.9018182,17.6222727 C23.9018182,15.5938636 23.6693182,14.9986364 20.55,14.9986364 L15.45,14.9986364 L15.9484091,10.0240909 L21.5229545,10.0240909 C28.3670455,10.0240909 29.8677273,12.1861364 29.8677273,17.6625 L29.8677273,29.4729545 Z M46.7720455,15.3634091 C43.6786364,14.8329545 42.7902273,14.7163636 41.3018182,14.7163636 C38.6284091,14.7163636 37.8204545,15.3061364 37.8204545,17.5765909 L37.8204545,21.8713636 C37.8204545,24.1418182 38.6284091,24.7343182 41.3018182,24.7343182 C42.7902273,24.7343182 43.6786364,24.6156818 46.7720455,24.0831818 L46.7720455,28.9356818 C44.0625,29.5431818 42.2972727,29.7027273 40.8054545,29.7027273 C34.4018182,29.7027273 31.8565909,26.3352273 31.8565909,21.4704545 L31.8565909,17.9856818 C31.8565909,13.1168182 34.4018182,9.74318182 40.8054545,9.74318182 C42.2972727,9.74318182 44.0625,9.90340909 46.7720455,10.5136364 L46.7720455,15.3634091 Z M65.4375,21.4704545 L54.4997727,21.4704545 L54.4997727,21.8713636 C54.4997727,24.1418182 55.3084091,24.7343182 57.9811364,24.7343182 C60.3838636,24.7343182 61.8504545,24.6156818 64.9384091,24.0831818 L64.9384091,28.9356818 C61.9602273,29.5431818 60.4084091,29.7027273 57.4868182,29.7027273 C51.0825,29.7027273 48.5359091,26.3352273 48.5359091,21.4704545 L48.5359091,17.4859091 C48.5359091,13.2293182 50.4252273,9.74318182 56.9877273,9.74318182 C63.5502273,9.74318182 65.4375,13.1890909 65.4375,17.4859091 L65.4375,21.4704545 Z M84.8263636,21.5625 C84.8263636,26.2643182 83.4825,29.6938636 75.3415909,29.6938636 C72.4015909,29.6938636 70.6772727,29.4354545 67.4325,28.9363636 L67.4325,2.05909091 L73.395,1.06431818 L73.395,10.4659091 C74.6836364,9.98727273 76.3513636,9.74386364 77.8690909,9.74386364 C83.8322727,9.74386364 84.8256818,12.4172727 84.8256818,16.7134091 L84.8256818,21.5625 L84.8263636,21.5625 Z M103.939773,21.6647727 C103.939773,25.7209091 102.265227,29.655 95.2588636,29.655 C88.2490909,29.655 86.5431818,25.7209091 86.5431818,21.6647727 L86.5431818,17.7484091 C86.5431818,13.6902273 88.2490909,9.75545455 95.2588636,9.75545455 C102.265227,9.75545455 103.939773,13.6902273 103.939773,17.7484091 L103.939773,21.6647727 Z M123.040227,21.6647727 C123.040227,25.7209091 121.363636,29.655 114.358636,29.655 C107.348864,29.655 105.642955,25.7209091 105.642955,21.6647727 L105.642955,17.7484091 C105.642955,13.6902273 107.348864,9.75545455 114.358636,9.75545455 C121.363636,9.75545455 123.040227,13.6902273 123.040227,17.7484091 L123.040227,21.6647727 Z M142.641818,29.4354545 L136.178864,29.4354545 L130.712727,20.3106818 L130.712727,29.4354545 L124.748182,29.4354545 L124.748182,2.05840909 L130.712727,1.06363636 L130.712727,18.6879545 L136.178864,10.0240909 L142.641818,10.0240909 L136.674545,19.4788636 L142.641818,29.4354545 Z M114.338182,14.7252273 C112.3125,14.7252273 111.609545,15.8325 111.609545,17.2111364 L111.609545,22.2422727 C111.609545,23.6243182 112.3125,24.735 114.338182,24.735 C116.361136,24.735 117.077045,23.6243182 117.077045,22.2422727 L117.077045,17.2111364 C117.077045,15.8325 116.361136,14.7252273 114.338182,14.7252273 Z M146.046136,26.0304545 C147.050455,26.0304545 147.850227,26.8493182 147.850227,27.8720455 C147.850227,28.9104545 147.049773,29.7204545 146.038636,29.7204545 C145.032273,29.7204545 144.216136,28.9104545 144.216136,27.8720455 C144.216136,26.8493182 145.032273,26.0304545 146.038636,26.0304545 L146.046136,26.0304545 Z M146.038636,26.3168182 C145.229318,26.3168182 144.567273,27.0129545 144.567273,27.8720455 C144.567273,28.7468182 145.23,29.4340909 146.046136,29.4340909 C146.862955,29.4422727 147.515455,28.7468182 147.515455,27.8802273 C147.515455,27.0136364 146.862955,26.3168182 146.046136,26.3168182 L146.038636,26.3168182 Z M145.695682,28.9438636 L145.368409,28.9438636 L145.368409,26.8888636 C145.540227,26.865 145.703864,26.8411364 145.949318,26.8411364 C146.260227,26.8411364 146.463409,26.9065909 146.588182,26.9959091 C146.708864,27.0865909 146.773636,27.225 146.773636,27.4206818 C146.773636,27.6920455 146.595,27.855 146.374773,27.9211364 L146.374773,27.9368182 C146.554091,27.9702273 146.676136,28.1325 146.717727,28.4345455 C146.765455,28.7543182 146.815227,28.8763636 146.847273,28.9431818 L146.504318,28.9431818 C146.455909,28.8763636 146.406136,28.6888636 146.365227,28.4181818 C146.3175,28.1570455 146.185227,28.0588636 145.923409,28.0588636 L145.696364,28.0588636 L145.696364,28.9438636 L145.695682,28.9438636 Z M145.695682,27.8065909 L145.932955,27.8065909 C146.201591,27.8065909 146.43,27.7077273 146.43,27.4534091 C146.43,27.2734091 146.300455,27.0940909 145.932955,27.0940909 C145.825909,27.0940909 145.751591,27.1022727 145.695682,27.1097727 L145.695682,27.8065909 Z" id="Shape"></path>
                    </g>
                </g>
            </g>
        </g>
    </g>
</svg>