<?xml version="1.0" encoding="UTF-8" standalone="no"?>
<svg width="235px" height="80px" viewBox="0 0 235 80" version="1.1" xmlns="http://www.w3.org/2000/svg" xmlns:xlink="http://www.w3.org/1999/xlink">
    <!-- Generator: Sketch 50.2 (55047) - http://www.bohemiancoding.com/sketch -->
    <title>Group 9</title>
    <desc>Created with Sketch.</desc>
    <defs></defs>
    <g id="Website" stroke="none" stroke-width="1" fill="none" fill-rule="evenodd">
        <g id="Mentorship" transform="translate(-1027.000000, -2093.000000)">
            <g id="Group-9" transform="translate(1027.000000, 2093.000000)">
                <rect id="Rectangle-2" fill="#FFFFFF" x="0" y="0" width="235" height="80"></rect>
                <g id="8AD" transform="translate(58.000000, 24.000000)" fill="#2164F3" fill-rule="nonzero">
                    <path d="M112.743932,25.408547 C112.379424,26.2352572 111.782738,26.9383587 111.026325,27.4324786 C110.309536,27.8706922 109.484199,28.0990575 108.644103,28.0916239 L108.630427,28.0916239 C107.786679,28.0951542 106.959723,27.8558974 106.248205,27.4023932 C105.488268,26.8908347 104.891921,26.1710395 104.530598,25.3292308 C104.085681,24.2668679 103.872169,23.1219172 103.904274,21.9705983 C103.877574,20.852986 104.079541,19.7417059 104.497778,18.7049573 C104.832037,17.8394296 105.407193,17.0877407 106.155214,16.5388034 C106.866942,16.0312856 107.723672,15.7674552 108.597607,15.7866667 L108.644103,15.7866667 C109.488064,15.7873486 110.31199,16.043872 111.007179,16.5223932 C111.769465,17.0563729 112.370276,17.7896457 112.743932,18.6420513 C113.199685,19.6910055 113.419115,20.8273732 113.386667,21.9705983 C113.386667,23.3381197 113.178803,24.4977778 112.743932,25.408547 M117.74359,5.6642735 C117.300365,5.17940491 116.662741,4.91933461 116.006838,4.95589744 C115.336902,4.91504729 114.688996,5.20277867 114.270085,5.72717949 C113.868034,6.22769231 113.660171,6.97982906 113.660171,7.96991453 L113.660171,15.1275214 C112.84372,14.221027 111.868649,13.4711868 110.782906,12.9148718 C110.107204,12.5947612 109.385517,12.3825004 108.644103,12.285812 C108.154458,12.2215156 107.661022,12.1904474 107.167179,12.1928205 C104.707464,12.1928205 102.71453,13.0397721 101.188376,14.7336752 C99.6622222,16.4275783 98.9064387,18.7870085 98.9210256,21.8119658 C98.9102551,23.1636541 99.1048386,24.5091387 99.4981197,25.8023932 C99.8472429,26.9659012 100.415369,28.0520251 101.171966,29.0023932 C101.887304,29.8869839 102.787107,30.6047726 103.808547,31.105641 C104.832528,31.5968525 105.954915,31.8484544 107.090598,31.8413675 C107.608116,31.8455718 108.124793,31.7988511 108.633162,31.7018803 C108.949253,31.6519892 109.26105,31.5779258 109.565812,31.4803419 C110.316611,31.2319244 111.026349,30.8733683 111.671795,30.4164103 C112.395904,29.8827463 113.059045,29.2709683 113.649231,28.5921368 L113.649231,29.0652991 C113.649231,29.9596581 113.873504,30.6352137 114.308376,31.1220513 C114.75026,31.5766957 115.35564,31.8357005 115.98962,31.8413519 C116.6236,31.8470032 117.233501,31.5988315 117.683419,31.1521368 C118.115556,30.6817094 118.342564,29.9924786 118.342564,29.0652991 L118.342564,7.7182906 C118.342564,6.82393162 118.131966,6.13470085 117.73265,5.6642735" id="Shape"></path>
                    <path d="M85.822906,16.7439316 C86.6102043,15.9144418 87.7159356,15.4631839 88.8588034,15.5049573 L88.8888889,15.5049573 C90.0538749,15.4559404 91.1856573,15.8997183 92.0068376,16.7275214 C92.797265,17.5480342 93.2594872,18.7842735 93.374359,20.4471795 L84.3760684,20.4471795 C84.5347009,18.8061538 85.0188034,17.5753846 85.822906,16.7439316 M97.3921368,25.6136752 C97.0449613,25.3287662 96.6045295,25.1826052 96.1558974,25.2034188 C95.7714032,25.1828773 95.3913657,25.2938019 95.0782906,25.5179487 C94.4519658,26.0841026 93.954188,26.5353846 93.568547,26.8690598 C93.1566699,27.200923 92.7266,27.5095507 92.2803419,27.7935043 C91.8450121,28.0726089 91.3701879,28.2846663 90.8717949,28.4225641 C90.3411957,28.5643514 89.7936101,28.6324545 89.2444444,28.6249573 C89.1211359,28.6280596 88.9977609,28.6225763 88.8752137,28.608547 C88.1491639,28.5686265 87.443531,28.3537463 86.8184615,27.9822222 C86.0660059,27.5366699 85.4530842,26.8896443 85.0488889,26.114188 C84.6011331,25.2068373 84.3707788,24.2076991 84.3760684,23.1958974 L94.0663248,23.1958974 C95.3682051,23.1958974 96.3801709,23.0071795 97.088547,22.6488889 C97.7969231,22.2905983 98.1661538,21.4892308 98.1661538,20.2803419 C98.1303952,17.3784846 96.5415442,14.7185684 94.0034188,13.311453 C92.6167521,12.5128205 90.9647863,12.1189744 89.0201709,12.1189744 L88.8888889,12.1189744 C87.5512704,12.1200705 86.2240719,12.3542275 84.9668376,12.8109402 C83.8001376,13.2498529 82.7414529,13.9345001 81.8625641,14.8184615 C81.0205986,15.7275898 80.3761661,16.8013336 79.9699145,17.9719658 C79.5237422,19.2537136 79.3007928,20.6025113 79.3107692,21.9596581 C79.3107692,25.0064957 80.194188,27.391453 81.9637607,29.1637607 C83.6321368,30.8430769 85.9487179,31.7237607 88.8888889,31.8167521 C89.0502564,31.8167521 89.2252991,31.8167521 89.4030769,31.8167521 C90.6561019,31.8385905 91.9045283,31.6594524 93.1008547,31.2861538 C94.0558604,30.9857657 94.9569425,30.5352247 95.7702564,29.951453 C96.3974344,29.4870251 96.9349497,28.9124398 97.3565812,28.2557265 C97.6672338,27.8046701 97.8513935,27.2786346 97.8899145,26.7323077 C97.9142553,26.296827 97.735481,25.8746368 97.405812,25.5890598" id="Shape"></path>
                    <path d="M65.9719658,16.7439316 C66.7590594,15.9141423 67.8649321,15.4628268 69.0078632,15.5049573 L69.0270085,15.5049573 C70.1918229,15.4569648 71.3232066,15.9005863 72.1449573,16.7275214 C72.9463248,17.5480342 73.3976068,18.7842735 73.5261538,20.4471795 L64.5251282,20.4471795 C64.702906,18.8061538 65.1842735,17.5753846 65.9719658,16.7439316 M76.3213675,25.2034188 C75.9314461,25.179972 75.5452816,25.2909943 75.2273504,25.5179487 C74.6147009,26.0841026 74.1032479,26.5381197 73.7148718,26.8690598 C73.3096828,27.2009701 72.8859815,27.5096146 72.445812,27.7935043 C72.0030638,28.0733935 71.5209121,28.2854296 71.0153846,28.4225641 C70.4868571,28.5654119 69.9409284,28.6335379 69.3935043,28.6249573 C69.2701957,28.6280596 69.1468207,28.6225763 69.0242735,28.608547 C68.2972872,28.5690627 67.5906657,28.3541671 66.9647863,27.9822222 C66.2180093,27.5356024 65.6115441,26.8883903 65.214359,26.114188 C64.752606,25.2111412 64.5152518,24.2101254 64.5223932,23.1958974 L74.2290598,23.1958974 C75.517265,23.1958974 76.5292308,23.0071795 77.2376068,22.6488889 C77.9459829,22.2905983 78.2988034,21.4892308 78.2988034,20.2803419 C78.2952506,18.9253545 77.9470048,17.5935496 77.2868376,16.4102564 C76.5530503,15.1119874 75.4750327,14.0415415 74.1716239,13.3169231 C72.7849573,12.5182906 71.1138462,12.1244444 69.1883761,12.1244444 L69.0270085,12.1244444 C67.685476,12.1269712 66.3546195,12.3629715 65.0940171,12.8218803 C63.9300649,13.2567109 62.8759088,13.9420524 62.0061538,14.8294017 C61.1516348,15.7329582 60.4990254,16.8078991 60.0916239,17.982906 C59.6454516,19.2646537 59.4225022,20.6134514 59.4324786,21.9705983 C59.4324786,25.0174359 60.3323077,27.4023932 62.1018803,29.1747009 C63.7702564,30.8540171 66.0740741,31.7383476 69.0133333,31.8276923 C69.1883761,31.8276923 69.3497436,31.8276923 69.5275214,31.8276923 C70.7788323,31.8507983 72.02566,31.6716245 73.2198291,31.297094 C74.1753106,30.9978839 75.0765738,30.5472523 75.8892308,29.9623932 C76.5226576,29.5033171 77.0628766,28.9278261 77.4810256,28.2666667 C77.7910685,27.8155105 77.9743117,27.2893946 78.0116239,26.7432479 C78.0350985,26.3118597 77.8645665,25.8925517 77.5466667,25.6 C77.1957273,25.3200328 76.7563672,25.1745493 76.3076923,25.1897436" id="Shape"></path>
                    <path d="M10.3740171,28.6249573 L10.3740171,17.0748718 C10.7131624,17.1049573 11.0358974,17.1186325 11.3723077,17.1186325 C12.9186805,17.1259354 14.4389181,16.7199092 15.7757265,15.9425641 L15.7757265,28.6249573 C15.7757265,29.7189744 15.5186325,30.5094017 15.0208547,31.042735 C14.5126487,31.5788668 13.7979997,31.8699094 13.0598291,31.8413675 C12.3272101,31.8631491 11.6217229,31.563367 11.1288889,31.0208547 C10.6338462,30.4875214 10.3740171,29.6861538 10.3740171,28.6194872" id="Shape"></path>
                    <path d="M52.0834188,25.408547 C51.7191878,26.2403951 51.1155405,26.9449677 50.3494017,27.4324786 C49.63957,27.8705055 48.8203956,28.0990021 47.9863248,28.0916239 L47.9699145,28.0916239 C47.1270306,28.0950921 46.3009695,27.8558192 45.5904274,27.4023932 C44.8261635,26.8949081 44.2279224,26.1739751 43.8700855,25.3292308 C43.426452,24.2664846 43.2129911,23.1218121 43.2437607,21.9705983 C43.2208099,20.8545443 43.4178335,19.7448924 43.8235897,18.7049573 C44.1618525,17.8378627 44.7418458,17.0860547 45.4947009,16.5388034 C46.200489,16.0318211 47.0518833,15.7678601 47.9206838,15.7866667 L47.9863248,15.7866667 C48.8253777,15.7861695 49.6444087,16.0429519 50.3329915,16.5223932 C51.1036647,17.0508513 51.7102221,17.7853544 52.0834188,18.6420513 C52.530088,19.6937983 52.7491315,20.8281635 52.7261538,21.9705983 C52.7593489,23.1492894 52.540208,24.3214599 52.0834188,25.408547 M57.0666667,5.6642735 C56.6271649,5.18396601 55.9966017,4.92432233 55.3463248,4.95589744 C54.6763047,4.91457839 54.0281922,5.20240155 53.6095726,5.72717949 C53.1938462,6.22769231 52.9996581,6.97982906 52.9996581,7.96991453 L52.9996581,15.1275214 C52.1837522,14.2204378 51.2085659,13.4705084 50.1223932,12.9148718 C49.4468072,12.5969781 48.726373,12.3848143 47.9863248,12.285812 C47.4957715,12.221434 47.0014201,12.1903657 46.5066667,12.1928205 C44.0451282,12.1928205 42.0376068,13.0406838 40.5278632,14.7336752 C39.0181197,16.4266667 38.2605128,18.7842735 38.2605128,21.8119658 C38.2565725,23.1631814 38.45101,24.5076569 38.8376068,25.8023932 C39.1924383,26.9668274 39.7661068,28.0528989 40.5278632,29.0023932 C41.242164,29.8869223 42.1410661,30.6047372 43.1617094,31.105641 C44.1857851,31.5965795 45.3081087,31.8481671 46.4437607,31.8413675 C46.9621164,31.8439361 47.4795428,31.7972304 47.9890598,31.7018803 C48.3050904,31.6516872 48.6168654,31.5776292 48.9217094,31.4803419 C49.6716484,31.2319006 50.3804808,30.8733365 51.0249573,30.4164103 C51.7460978,29.8791601 52.4088721,29.267721 53.0023932,28.5921368 L53.0023932,29.0652991 C53.0023932,29.9596581 53.2294017,30.6352137 53.6615385,31.1220513 C54.1006891,31.5765608 54.7039375,31.8357207 55.3359186,31.8413772 C55.9678998,31.8470337 56.5756903,31.598713 57.022906,31.1521368 C57.4550427,30.6817094 57.662906,29.9924786 57.662906,29.0652991 L57.662906,7.7182906 C57.662906,6.82393162 57.471453,6.13470085 57.0694017,5.6642735" id="Shape"></path>
                    <path d="M23.6991453,14.8294017 L23.6991453,15.425641 C24.4631467,14.4025171 25.4389854,13.5563549 26.56,12.9449573 C27.6778286,12.4077953 28.9056236,12.1390103 30.145641,12.16 C31.3636625,12.1369823 32.5680901,12.4190496 33.6492308,12.9805128 C34.6454649,13.5005953 35.4501657,14.3244557 35.9466667,15.3326496 C36.2824287,15.9292687 36.5006169,16.5847615 36.5894017,17.2635897 C36.6982662,18.1325759 36.7467016,19.0080689 36.734359,19.8837607 L36.734359,28.8793162 C36.734359,29.8529915 36.4936752,30.5887179 36.0423932,31.0673504 C35.5943813,31.5680257 34.9469778,31.8436232 34.2755556,31.8194872 C33.5910282,31.8447546 32.9310051,31.5628906 32.4758974,31.0509402 C32.0082051,30.5476923 31.7839316,29.8119658 31.7839316,28.862906 L31.7839316,20.8382906 C31.7839316,19.2410256 31.5587464,18.0175499 31.1083761,17.1678632 C30.6598291,16.32 29.7408547,15.8960684 28.3924786,15.8960684 C27.5281406,15.8959407 26.6851395,16.1645159 25.9801709,16.6646154 C25.2403928,17.1975904 24.6796466,17.9423909 24.3719658,18.8006838 C24.1340171,19.522735 24.0191453,20.8547009 24.0191453,22.8512821 L24.0191453,28.8929915 C24.0191453,29.8803419 23.7811966,30.6023932 23.3135043,31.105641 C22.8463531,31.596841 22.1913168,31.8646294 21.5138462,31.8413675 C20.8386098,31.8633715 20.1891189,31.5812896 19.7442735,31.0728205 C19.2793162,30.5695726 19.0523077,29.8338462 19.0523077,28.8847863 L19.0523077,14.9059829 C19.0523077,13.9815385 19.262906,13.2923077 19.6813675,12.8519658 C20.1126315,12.3813318 20.7313651,12.127621 21.3688889,12.16 C21.7801751,12.1509098 22.1860548,12.2549816 22.5422222,12.4608547 C22.9099946,12.6718956 23.2062262,12.98813 23.3928205,13.3688889 C23.6106129,13.824104 23.7156781,14.3250398 23.6991453,14.8294017" id="Shape"></path>
                    <path d="M10.4068376,0.938119658 C13.7490598,-0.237948718 17.5589744,-0.175042735 20.4198291,2.24 C20.9668376,2.72683761 21.5603419,3.33401709 21.8037607,4.06153846 C22.0936752,4.97230769 20.7917949,3.96581197 20.6140171,3.84273504 C19.7090819,3.24003151 18.7312196,2.75477657 17.7039316,2.39863248 C12.0806838,0.702905983 6.76376068,3.76615385 3.44888889,8.51965812 C2.1179691,10.6094333 1.09979025,12.8825982 0.426666667,15.2670085 C0.365232342,15.560468 0.267860014,15.8452362 0.136752137,16.1148718 C-0.00820512821,16.3883761 0.0711111111,15.3955556 0.0711111111,15.362735 C0.191495417,14.366102 0.385298559,13.3797171 0.650940171,12.4116239 C2.17709402,7.23145299 5.55213675,2.91555556 10.4068376,0.938119658" id="Shape"></path>
                    <path d="M14.7692308,13.7928205 C12.775539,14.796999 10.344852,14.0228252 9.2991453,12.0505983 C8.80788241,11.1071426 8.72059745,10.0046926 9.0572768,8.99568572 C9.39395615,7.98667885 10.1257626,7.15753835 11.0851282,6.69811966 C13.07882,5.69394117 15.509507,6.46811499 16.5552137,8.44034188 C17.0472684,9.38365646 17.1349768,10.4863992 16.7982212,11.4956345 C16.4614656,12.5048698 15.7291448,13.3339901 14.7692308,13.7928205" id="Shape"></path>
                </g>
            </g>
        </g>
    </g>
</svg>