<?xml version="1.0" encoding="UTF-8" standalone="no"?>
<svg width="235px" height="80px" viewBox="0 0 235 80" version="1.1" xmlns="http://www.w3.org/2000/svg" xmlns:xlink="http://www.w3.org/1999/xlink">
    <!-- Generator: Sketch 50.2 (55047) - http://www.bohemiancoding.com/sketch -->
    <title>Group 17</title>
    <desc>Created with Sketch.</desc>
    <defs></defs>
    <g id="Website" stroke="none" stroke-width="1" fill="none" fill-rule="evenodd">
        <g id="Mentorship" transform="translate(-1027.000000, -2093.000000)">
            <g id="Group-17" transform="translate(1027.000000, 2093.000000)">
                <rect id="Rectangle-2" fill="#FFFFFF" x="0" y="0" width="235" height="80"></rect>
                <g id="microsoft" transform="translate(38.000000, 23.000000)" fill-rule="nonzero">
                    <path d="M159.037846,15.3596923 L159.037846,12.5627692 L155.564615,12.5627692 L155.564615,8.21461538 L155.447692,8.25061538 L152.185385,9.24876923 L152.121077,9.26830769 L152.121077,12.5629231 L146.972,12.5629231 L146.972,10.7275385 C146.972,9.87292308 147.163077,9.21892308 147.539692,8.78276923 C147.913692,8.35184615 148.448615,8.13276923 149.130923,8.13276923 C149.621385,8.13276923 150.129231,8.24830769 150.640308,8.47615385 L150.768462,8.53338462 L150.768462,5.58784615 L150.708154,5.56569231 C150.231385,5.39430769 149.582923,5.308 148.779077,5.308 C147.766,5.308 146.845538,5.52846154 146.042769,5.96538462 C145.239538,6.40292308 144.607692,7.02753846 144.165077,7.82169231 C143.724,8.61492308 143.500154,9.53107692 143.500154,10.5449231 L143.500154,12.5627692 L141.081692,12.5627692 L141.081692,15.3596923 L143.500154,15.3596923 L143.500154,27.1426154 L146.972,27.1426154 L146.972,15.3596923 L152.121077,15.3596923 L152.121077,22.8475385 C152.121077,25.9313846 153.575692,27.4941538 156.444462,27.4941538 C156.915846,27.4941538 157.412,27.4389231 157.918615,27.3307692 C158.434308,27.2196923 158.785538,27.1087692 158.992308,26.9903077 L159.038,26.9632308 L159.038,24.1404615 L158.896769,24.2338462 C158.708308,24.3593846 158.473692,24.462 158.198615,24.5383077 C157.922308,24.616 157.691538,24.6549231 157.512769,24.6549231 C156.840769,24.6549231 156.343538,24.4738462 156.035077,24.1164615 C155.723077,23.7558462 155.564769,23.1252308 155.564769,22.2430769 L155.564769,15.3596923 L159.037846,15.3596923 Z M133.328462,24.6553846 C132.068308,24.6553846 131.074769,24.2375385 130.374615,23.4144615 C129.670154,22.5872308 129.313231,21.4078462 129.313231,19.9093846 C129.313231,18.3633846 129.670154,17.1533846 130.374923,16.3115385 C131.075538,15.4752308 132.059538,15.0507692 133.300154,15.0507692 C134.504,15.0507692 135.462308,15.4561538 136.148769,16.2563077 C136.838615,17.0606154 137.188769,18.2609231 137.188769,19.8249231 C137.188769,21.4081538 136.859538,22.6243077 136.210308,23.4378462 C135.565538,24.2452308 134.596,24.6553846 133.328462,24.6553846 Z M133.482769,12.2115385 C131.078615,12.2115385 129.169077,12.916 127.807538,14.3053846 C126.446923,15.6949231 125.757077,17.6178462 125.757077,20.0212308 C125.757077,22.304 126.430462,24.1401538 127.758769,25.4778462 C129.087077,26.816 130.894769,27.4938462 133.131231,27.4938462 C135.461692,27.4938462 137.333231,26.7795385 138.694154,25.3709231 C140.054923,23.9638462 140.744308,22.0590769 140.744308,19.7118462 C140.744308,17.3933846 140.097385,15.5435385 138.820923,14.2147692 C137.543846,12.8853846 135.747538,12.2115385 133.482769,12.2115385 Z M120.159385,12.2115385 C118.524,12.2115385 117.171231,12.6298462 116.137846,13.4546154 C115.098154,14.2843077 114.570769,15.3724615 114.570769,16.6892308 C114.570769,17.3736923 114.684615,17.9816923 114.908615,18.4973846 C115.134,19.0147692 115.482769,19.4703077 115.946154,19.8526154 C116.406,20.2318462 117.115846,20.6290769 118.056462,21.0332308 C118.847231,21.3586154 119.436923,21.6338462 119.811538,21.8507692 C120.177692,22.0633846 120.437538,22.2770769 120.584308,22.4852308 C120.726923,22.6889231 120.799231,22.9676923 120.799231,23.3116923 C120.799231,24.2912308 120.065692,24.7678462 118.556308,24.7678462 C117.996462,24.7678462 117.357846,24.6509231 116.658308,24.4204615 C115.963739,24.1934844 115.308186,23.8610902 114.714615,23.4349231 L114.570462,23.3315385 L114.570462,26.6741538 L114.623385,26.6987692 C115.114615,26.9255385 115.734,27.1167692 116.464,27.2672308 C117.192615,27.4178462 117.854615,27.4944615 118.429692,27.4944615 C120.204308,27.4944615 121.633385,27.0741538 122.676154,26.2444615 C123.725538,25.4090769 124.257385,24.2952308 124.257385,22.9329231 C124.257385,21.9501538 123.971077,21.1073846 123.406769,20.4276923 C122.846308,19.7535385 121.873538,19.1346154 120.516769,18.5875385 C119.435846,18.1536923 118.743385,17.7935385 118.457692,17.5170769 C118.182308,17.25 118.042462,16.8723077 118.042462,16.394 C118.042462,15.97 118.215077,15.6303077 118.569385,15.3552308 C118.926462,15.0787692 119.423538,14.9381538 120.046923,14.9381538 C120.625385,14.9381538 121.217231,15.0295385 121.805846,15.2086154 C122.394,15.3876923 122.910615,15.6275385 123.341846,15.9209231 L123.483692,16.0178462 L123.483692,12.8470769 L123.429231,12.8236923 C123.031385,12.6530769 122.506769,12.5070769 121.869538,12.3886154 C121.235231,12.2709231 120.659846,12.2115385 120.159385,12.2115385 Z M105.519846,24.6553846 C104.26,24.6553846 103.266154,24.2375385 102.566154,23.4144615 C101.861538,22.5872308 101.505231,21.4081538 101.505231,19.9093846 C101.505231,18.3633846 101.862,17.1533846 102.566923,16.3115385 C103.266923,15.4752308 104.250769,15.0507692 105.492,15.0507692 C106.695385,15.0507692 107.653692,15.4561538 108.340308,16.2563077 C109.030308,17.0606154 109.380308,18.2609231 109.380308,19.8249231 C109.380308,21.4081538 109.050923,22.6243077 108.401692,23.4378462 C107.756923,24.2452308 106.787846,24.6553846 105.519846,24.6553846 Z M105.674615,12.2115385 C103.269846,12.2115385 101.360154,12.916 99.9993846,14.3053846 C98.6387692,15.6949231 97.9484615,17.6178462 97.9484615,20.0212308 C97.9484615,22.3049231 98.6223077,24.1401538 99.9506154,25.4778462 C101.278923,26.816 103.086462,27.4938462 105.322923,27.4938462 C107.653077,27.4938462 109.525077,26.7795385 110.886,25.3709231 C112.246462,23.9638462 112.936154,22.0590769 112.936154,19.7118462 C112.936154,17.3933846 112.289077,15.5435385 111.012308,14.2147692 C109.734923,12.8853846 107.938923,12.2115385 105.674615,12.2115385 Z M92.6783077,15.0876923 L92.6783077,12.5627692 L89.2487692,12.5627692 L89.2487692,27.1423077 L92.6783077,27.1423077 L92.6783077,19.6843077 C92.6783077,18.4161538 92.9658462,17.3743077 93.5332308,16.5873846 C94.0933846,15.8098462 94.8398462,15.4158462 95.7512308,15.4158462 C96.0601538,15.4158462 96.4069231,15.4667692 96.7824615,15.5675385 C97.1541538,15.6676923 97.4233846,15.7764615 97.5821538,15.8909231 L97.7263077,15.9953846 L97.7263077,12.5378462 L97.6707692,12.514 C97.3513846,12.3783077 96.8995385,12.3098462 96.3278462,12.3098462 C95.466,12.3098462 94.6947692,12.5867692 94.0341538,13.132 C93.4543077,13.6112308 93.0352308,14.2683077 92.7147692,15.0876923 L92.6783077,15.0876923 Z M83.1070769,12.2115385 C81.5336923,12.2115385 80.1303077,12.5489231 78.9366154,13.214 C77.7404615,13.8806154 76.8153846,14.8323077 76.186,16.0424615 C75.5593846,17.2496923 75.2412308,18.6598462 75.2412308,20.2324615 C75.2412308,21.61 75.5496923,22.8741538 76.1593846,23.9883077 C76.7693846,25.1043077 77.6327692,25.9773846 78.7256923,26.5829231 C79.8170769,27.1876923 81.0784615,27.4943077 82.4750769,27.4943077 C84.1049231,27.4943077 85.4964615,27.1684615 86.6121538,26.5258462 L86.6572308,26.5 L86.6572308,23.358 L86.5130769,23.4632308 C86.0076923,23.8313846 85.4429231,24.1252308 84.8352308,24.3369231 C84.2290769,24.5484615 83.6764615,24.6553846 83.1918462,24.6553846 C81.8461538,24.6553846 80.7658462,24.2343077 79.9816923,23.4041538 C79.1958462,22.5729231 78.7973846,21.4056923 78.7973846,19.9369231 C78.7973846,18.4589231 79.2129231,17.2616923 80.0318462,16.3783077 C80.8483077,15.4975385 81.9306154,15.0507692 83.2484615,15.0507692 C84.3756923,15.0507692 85.4741538,15.4324615 86.5133846,16.1863077 L86.6572308,16.2907692 L86.6572308,12.9801538 L86.6107692,12.954 C86.2196923,12.7350769 85.6863077,12.5543077 85.0241538,12.4172308 C84.3647692,12.2804615 83.7198462,12.2115385 83.1070769,12.2115385 Z M72.8792308,12.5629231 L69.4496923,12.5629231 L69.4496923,27.1423077 L72.8792308,27.1423077 L72.8792308,12.5629231 Z M71.1995385,6.352 C70.6350769,6.352 70.1427692,6.54415385 69.7383077,6.92492308 C69.3321538,7.30676923 69.1261538,7.78753846 69.1261538,8.35492308 C69.1261538,8.91338462 69.3296923,9.38538462 69.732,9.75707692 C70.1316923,10.1276923 70.6255385,10.3155385 71.1996923,10.3155385 C71.7736923,10.3155385 72.2693846,10.1276923 72.6738462,9.75769231 C73.0809231,9.38538462 73.2873846,8.91353846 73.2873846,8.35492308 C73.2873846,7.80738462 73.0864615,7.33153846 72.6906154,6.94030769 C72.2950769,6.54984615 71.7932308,6.352 71.1995385,6.352 Z M62.6426154,11.4872308 L62.6426154,27.1423077 L66.1426154,27.1423077 L66.1426154,6.79830769 L61.2984615,6.79830769 L55.1412308,21.9092308 L49.166,6.79830769 L44.1246154,6.79830769 L44.1246154,27.1423077 L47.4136923,27.1421538 L47.4136923,11.4856923 L47.5266154,11.4856923 L53.8363077,27.1423077 L56.3184615,27.1423077 L62.5296923,11.4872308 L62.6426154,11.4872308 Z" id="Shape" fill="#666666"></path>
                    <polygon id="Shape" fill="#F45326" points="16.1335385 16.1335385 0 16.1335385 0 0 16.1335385 0"></polygon>
                    <polygon id="Shape" fill="#81BC0A" points="33.9467692 16.1335385 17.8135385 16.1335385 17.8135385 0 33.9467692 0"></polygon>
                    <polygon id="Shape" fill="#08A6F0" points="16.1330769 33.9530769 0 33.9530769 0 17.8196923 16.1330769 17.8196923"></polygon>
                    <polygon id="Shape" fill="#FFBA0F" points="33.9467692 33.9530769 17.8135385 33.9530769 17.8135385 17.8196923 33.9467692 17.8196923"></polygon>
                </g>
            </g>
        </g>
    </g>
</svg>