<?xml version="1.0" encoding="UTF-8" standalone="no"?>
<svg width="236px" height="80px" viewBox="0 0 236 80" version="1.1" xmlns="http://www.w3.org/2000/svg" xmlns:xlink="http://www.w3.org/1999/xlink">
    <!-- Generator: Sketch 50.2 (55047) - http://www.bohemiancoding.com/sketch -->
    <title>Group 7</title>
    <desc>Created with Sketch.</desc>
    <defs></defs>
    <g id="Website" stroke="none" stroke-width="1" fill="none" fill-rule="evenodd">
        <g id="Mentorship" transform="translate(-461.000000, -2093.000000)">
            <g id="Group-7" transform="translate(461.000000, 2093.000000)">
                <rect id="Rectangle-2" fill="#FFFFFF" x="0" y="0" width="236" height="80"></rect>
                <g id="netflix-2" transform="translate(64.000000, 26.000000)" fill="#B81D24" fill-rule="nonzero">
                    <path d="M92.5626506,27.9079518 C94.0727711,28.0543373 95.5821687,28.2115663 97.0879518,28.3742169 L100.41253,20.1650602 L103.572651,29.1314458 C105.194096,29.3345783 106.814819,29.5478313 108.430482,29.7704819 L102.890241,14.0472289 L108.432289,0.361445783 L103.738554,0.361445783 L103.689759,0.428674699 L100.695904,7.82204819 L98.0674699,0.36253012 L93.433012,0.36253012 L98.2174699,13.940241 L92.563012,27.9079518 L92.5626506,27.9079518 Z M89.0577108,27.5862651 L89.0577108,0.361445783 L84.4250602,0.361445783 L84.4250602,27.2042169 C85.970241,27.323494 87.5161446,27.4514458 89.0577108,27.5859036 L89.0577108,27.5862651 Z M54.2577108,26.0638554 C55.5083133,26.0638554 56.7574699,26.073253 58.0044578,26.0833735 L58.0044578,16.0814458 L63.5696386,16.0814458 L63.5696386,11.8221687 L58.0048193,11.8221687 L58.0048193,4.62578313 L64.4143373,4.62578313 L64.4143373,0.361445783 L53.3540964,0.361445783 L53.3540964,26.0674699 C53.6544578,26.0674699 53.9562651,26.0627711 54.2577108,26.0638554 Z M39.8743373,26.3240964 C41.4177108,26.2691566 42.9625301,26.2228916 44.5095181,26.1853012 L44.5095181,4.62650602 L48.8396386,4.62650602 L48.8396386,0.36253012 L35.5442169,0.36253012 L35.5442169,4.62650602 L39.8750602,4.62650602 L39.8750602,26.3240964 L39.8743373,26.3240964 Z M4.4439759,29.1946988 L4.4439759,12.9748193 L9.92927711,28.539759 C11.6161446,28.3503614 13.3055422,28.1721687 14.9996386,28.0037349 L14.9996386,0.361807229 L10.5545783,0.361807229 L10.5545783,17.1628916 L4.63554217,0.361807229 L0,0.361807229 L0,29.7777108 L0.0278313253,29.7777108 C1.49638554,29.5745783 2.97,29.3815663 4.4439759,29.1946988 Z M31.0771084,4.62542169 L31.0771084,0.361807229 L20.0157831,0.361807229 L20.0157831,27.5428916 C23.6959904,27.2252044 27.3804442,26.958793 31.0680723,26.7437349 L31.0680723,22.4761446 C28.929759,22.6004819 26.7957831,22.7436145 24.6668675,22.903012 L24.6668675,16.083253 L30.2320482,16.083253 L30.2320482,11.8214458 L24.6668675,11.8214458 L24.6668675,4.62542169 L31.0771084,4.62542169 Z M73.5954217,22.2722892 L73.5954217,0.360361446 L68.9425301,0.360361446 L68.9425301,26.3396386 C72.6437349,26.4755422 76.3304819,26.6649398 80.0049398,26.903494 L80.0049398,22.6333735 C77.8724096,22.4956627 75.7362651,22.3760241 73.5954217,22.2719277 L73.5954217,22.2722892 Z" id="Shape"></path>
                </g>
            </g>
        </g>
    </g>
</svg>