<?xml version="1.0" encoding="UTF-8" standalone="no"?>
<svg width="236px" height="80px" viewBox="0 0 236 80" version="1.1" xmlns="http://www.w3.org/2000/svg" xmlns:xlink="http://www.w3.org/1999/xlink">
    <!-- Generator: Sketch 50.2 (55047) - http://www.bohemiancoding.com/sketch -->
    <title>Group 8</title>
    <desc>Created with Sketch.</desc>
    <defs></defs>
    <g id="Website" stroke="none" stroke-width="1" fill="none" fill-rule="evenodd">
        <g id="Mentorship" transform="translate(-744.000000, -2093.000000)">
            <g id="Group-8" transform="translate(744.000000, 2093.000000)">
                <rect id="Rectangle-2" fill="#FFFFFF" x="0" y="0" width="236" height="80"></rect>
                <g id="sony-2" transform="translate(50.000000, 31.000000)" fill="#000000" fill-rule="nonzero">
                    <path d="M134.570909,19.2305455 C133.820748,19.2164967 133.12148,19.6086629 132.742286,20.2560809 C132.363091,20.9034989 132.363091,21.7052284 132.742286,22.3526464 C133.12148,23.0000644 133.820748,23.3922305 134.570909,23.3781818 C135.121063,23.3776062 135.648369,23.1581065 136.03643,22.7681351 C136.424491,22.3781636 136.641399,21.8497861 136.639273,21.2996364 C136.639466,20.7509462 136.421635,20.224663 136.03372,19.8366122 C135.645806,19.4485615 135.119599,19.2305454 134.570909,19.2305455 Z M134.570909,23.1287273 C134.086092,23.1293118 133.621038,22.9366289 133.278699,22.5933339 C132.936359,22.2500389 132.744973,21.7844498 132.746909,21.2996364 C132.747101,20.8164078 132.939496,20.3531007 133.281667,20.0118843 C133.623839,19.670668 134.087682,19.4795684 134.570909,19.4807273 C135.053247,19.4807272 135.515819,19.672385 135.856815,20.0135175 C136.197811,20.35465 136.389284,20.8172986 136.389091,21.2996364 C136.391411,21.7835593 136.200948,22.2484896 135.859784,22.5917006 C135.51862,22.9349117 135.054837,23.1281528 134.570909,23.1287273 Z" id="Shape"></path>
                    <path d="M135.634909,20.7563636 C135.634909,20.5607273 135.548364,20.3549091 135.375273,20.2567273 C135.200727,20.1534545 135.005818,20.1432727 134.810182,20.1432727 L133.8,20.1432727 L133.8,22.4610909 L134.082909,22.4610909 L134.082909,21.392 L134.604364,21.392 L135.266182,22.4610909 L135.602909,22.4610909 L134.902545,21.392 C135.315636,21.3803636 135.634909,21.2123636 135.634909,20.7563636 Z M134.517091,21.1687273 L134.082182,21.1687273 L134.082182,20.3490909 L134.744,20.3490909 C135.032,20.3490909 135.347636,20.3927273 135.347636,20.7512727 C135.348364,21.2232727 134.842182,21.1687273 134.517091,21.1687273 Z M122.414545,9.55054545 L126.654545,5.02327273 C126.900364,4.69090909 127.022545,4.45818182 127.022545,4.25890909 C127.022545,3.92654545 126.736727,3.79345455 125.837818,3.79345455 L124.768,3.79345455 L124.768,0.935272727 L136.347636,0.935272727 L136.347636,3.79345455 L134.826182,3.79345455 C133.069091,3.79345455 132.742545,4.05890909 130.290909,7.14981818 L123.583273,14.3934545 L123.583273,18.8138182 C123.583273,19.9447273 124.154182,20.3425455 125.789091,20.3425455 L128.321455,20.3425455 L128.321455,23.1003636 L112.102545,23.1003636 L112.102545,20.3425455 L114.634909,20.3425455 C116.268364,20.3425455 116.840727,19.9447273 116.840727,18.8138182 L116.840727,14.3934545 L108.940364,5.65381818 C107.634909,4.12581818 107.815273,3.79345455 104.180364,3.79345455 L104.180364,0.935272727 L118.848,0.935272727 L118.848,3.79345455 L117.803636,3.79345455 C116.741091,3.79345455 116.290909,3.99272727 116.290909,4.39127273 C116.290909,4.72436364 116.617455,4.98981818 116.821818,5.25527273 L120.818909,9.61163636 C121.293818,10.1054545 121.873455,10.1694545 122.414545,9.55054545 Z M24.0021818,0.934545455 L27.5403636,0.934545455 L27.5403636,8.90981818 L24.2727273,8.90981818 C23.9832727,7.31563636 22.9854545,6.69527273 22.0756364,5.85890909 C20.4341818,4.35054545 16.8792727,3.09454545 13.8894545,3.09454545 C10.0305455,3.09454545 6.77381818,4.29163636 6.77381818,6.05163636 C6.77381818,10.9374545 28.8429091,7.04945455 28.8429091,16.2872727 C28.8429091,21.1054545 24.1156364,23.7970909 15.6261818,23.7970909 C12.6872727,23.7970909 8.24,22.8850909 5.616,21.4916364 C4.79345455,21.0167273 4.44436364,21.9410909 4.29018182,23.0996364 L0.662545455,23.0996364 L0.662545455,14.8581818 L3.944,14.8581818 C4.66763636,16.952 5.66472727,17.3832727 6.58181818,18.2145455 C8.17309091,19.6770909 11.9607273,20.7410909 15.4341818,20.7069091 C20.6712727,20.6552727 22.472,19.5105455 22.472,17.8487273 C22.472,16.1876364 20.6909091,15.7883636 14.952,14.8916364 L10.0792727,14.0938182 C4.58036364,13.2625455 0.576727273,12.0334545 0.576727273,7.64727273 C0.576727273,3.09454545 5.64145455,0.236363636 13.6494545,0.236363636 C17.024,0.236363636 19.8472727,0.687272727 22.5570909,2.21890909 C23.3076364,2.70690909 24.0116364,2.76509091 24.0021818,0.934545455 Z M93.0523636,14.2872727 L93.1221818,5.42327273 C93.1221818,4.26036364 92.5170909,3.86181818 90.7883636,3.86181818 L88.7570909,3.86181818 L88.7570909,1.104 L101.680727,1.104 L101.680727,3.86181818 L99.9963636,3.86181818 C98.2661818,3.86181818 97.6610909,4.26109091 97.6610909,5.42327273 L97.6610909,23.2683636 L92.6029091,23.2283636 L76.2218182,7.71636364 L76.2218182,18.9818182 C76.2218182,20.112 76.8269091,20.5432727 78.5556364,20.5432727 L80.8043636,20.5432727 L80.8043636,23.2683636 L67.3825455,23.2683636 L67.3825455,20.5432727 L69.6065455,20.5432727 C71.3352727,20.5432727 71.9403636,20.1112727 71.9403636,18.9818182 L71.9403636,5.42327273 C71.9403636,4.26036364 71.3352727,3.86181818 69.6065455,3.86181818 L67.3825455,3.86181818 L67.3825455,1.104 L78.9869091,1.104 L93.0523636,14.2872727 Z M49.7629091,0.0690909091 C39.4632727,0.0690909091 33.016,4.62254545 33.016,11.9323636 C33.016,19.1112727 39.3738182,23.6298182 49.4487273,23.6298182 C60.1498182,23.6298182 66.3745455,19.1774545 66.3745455,11.5672727 C66.3752727,4.72218182 59.6581818,0.0690909091 49.7629091,0.0690909091 Z M49.5287273,20.7396364 C43.8276364,20.7396364 40.5505455,17.4494545 40.5505455,11.7665455 C40.5505455,6.21745455 43.9701818,2.92727273 49.8138182,2.92727273 C55.4196364,2.92727273 58.6967273,6.28436364 58.6967273,12 C58.6967273,17.5825455 55.3716364,20.7396364 49.5287273,20.7396364 Z" id="Shape"></path>
                </g>
            </g>
        </g>
    </g>
</svg>