<?xml version="1.0" encoding="UTF-8" standalone="no"?>
<svg width="235px" height="80px" viewBox="0 0 235 80" version="1.1" xmlns="http://www.w3.org/2000/svg" xmlns:xlink="http://www.w3.org/1999/xlink">
    <!-- Generator: Sketch 50.2 (55047) - http://www.bohemiancoding.com/sketch -->
    <title>Group 10</title>
    <desc>Created with Sketch.</desc>
    <defs></defs>
    <g id="Website" stroke="none" stroke-width="1" fill="none" fill-rule="evenodd">
        <g id="Mentorship" transform="translate(-1027.000000, -2193.000000)">
            <g id="Group-10" transform="translate(1027.000000, 2193.000000)">
                <rect id="Rectangle-2" fill="#FFFFFF" x="0" y="0" width="235" height="80"></rect>
                <g id="yelp" transform="translate(59.000000, 6.000000)" fill-rule="nonzero">
                    <path d="M82.2295,23.6259922 C81.4932969,24.8048281 81.1852344,28.5090312 81.4398828,30.9706328 C81.5276641,31.7821953 81.6725859,32.4596016 81.8912109,32.8616562 C82.1847813,33.4222969 82.6779297,33.7568594 83.2410547,33.7754922 C83.5979766,33.7937109 83.8248828,33.7345 90.6126094,31.5457656 C90.6126094,31.5457656 93.6294688,30.5872109 93.6456172,30.581 C94.3921719,30.3872187 94.9022969,29.6978047 94.9511563,28.8146094 C95.0000156,27.9069844 94.5288125,27.1095 93.7619688,26.8200703 L91.6324453,25.9509531 C84.3345938,22.9407187 84.0099688,22.8264375 83.6389688,22.8222969 C83.0779141,22.7957969 82.5781406,23.0831562 82.2295,23.6255781 M98.5452188,46.0462344 C98.6652969,45.7033906 98.6777188,45.4690312 98.6959375,38.3380469 C98.6959375,38.3380469 98.7141563,35.1870312 98.7207813,35.15225 C98.7655,34.3854062 98.2677969,33.6794297 97.4475391,33.3635 C96.6053359,33.0368047 95.6977109,33.2367969 95.1855156,33.8732109 C95.1855156,33.8732109 93.7006875,35.6354609 93.6948906,35.6375312 C88.5853594,41.6443359 88.370875,41.9180312 88.2487266,42.2770234 C88.1700489,42.4849731 88.1413969,42.7085157 88.1650859,42.9295859 C88.1977969,43.2455156 88.3381641,43.566 88.5812188,43.8512891 C89.7641953,45.2648984 95.4488594,47.3555 97.2599688,47.0457812 C97.8901719,46.9315 98.3514375,46.5725078 98.5452188,46.0462344 M110.069406,43.5635156 C111.786938,42.8803125 115.527578,38.1239766 115.788438,36.2967187 C115.878289,35.6578203 115.680781,35.1112578 115.239805,34.7584766 C114.956586,34.5423359 114.730094,34.4586953 107.952305,32.2314531 C107.952305,32.2314531 104.972297,31.2480547 104.939586,31.2319062 C104.215391,30.9503437 103.395133,31.2095469 102.842773,31.89275 C102.267227,32.5925156 102.177789,33.5121484 102.640711,34.2115 L103.83818,36.1596641 C107.866594,42.7030937 108.170516,43.1639453 108.459945,43.3925078 C108.908789,43.7411484 109.481852,43.8045 110.069406,43.5639297 M106.571406,26.7240078 C114.28125,24.8598984 114.576891,24.7617656 114.882883,24.5621875 C115.349945,24.2437734 115.580578,23.7216406 115.541656,23.0752891 C115.541656,23.0525156 115.543727,23.0342969 115.541656,23.0119375 C115.342078,21.1209141 112.027508,16.1952266 110.393617,15.3956719 C109.812273,15.1203203 109.233,15.1389531 108.755586,15.4569531 C108.457875,15.6565312 108.235523,15.9422344 104.111461,21.5921172 C104.111461,21.5921172 102.244867,24.1336328 102.222508,24.1559922 C101.731016,24.7518281 101.724805,25.6105937 102.201805,26.3463828 C102.697852,27.1074297 103.542125,27.4788437 104.313523,27.2647734 C104.313523,27.2647734 104.278742,27.3177734 104.272117,27.3297812 C104.649742,27.1848594 105.335016,27.0179922 106.571406,26.7240078 M98.8284375,20.3582109 C98.6938672,17.3024297 97.7779609,3.7000625 97.6698906,3.07192969 C97.5125469,2.49638281 97.0661875,2.09060156 96.4235625,1.92953125 C94.4596641,1.44010937 86.9349063,3.551 85.542,4.98945312 C85.0972969,5.45403125 84.9300156,6.03123437 85.0625156,6.54135937 C85.2807266,6.99020312 94.6000313,21.6533984 94.6000313,21.6533984 C95.9788594,23.8889219 97.1030391,23.5402812 97.4698984,23.4255859 C97.8371719,23.3117187 98.9551406,22.9630781 98.8284375,20.3582109" id="Shape" fill="#E9E9E9"></path>
                    <path d="M82.845625,22.0836094 C82.1110781,23.2607891 81.8009453,26.9666484 82.0560078,29.4265938 C82.1458594,30.2381563 82.2928516,30.9155625 82.5069219,31.3196875 C82.8009062,31.8786719 83.2940547,32.21075 83.8567656,32.2314531 C84.2182422,32.2496719 84.4426641,32.1883906 91.2308047,30.0058672 C91.2308047,30.0058672 94.24725,29.0431719 94.2596719,29.0369609 C95.0124375,28.84525 95.5184219,28.1537656 95.5668672,27.2705703 C95.6161406,26.3650156 95.1486641,25.5654609 94.3780937,25.2760313 C94.3780937,25.2760313 92.2506406,24.4089844 92.2465,24.4089844 C84.952375,21.4004063 84.6240234,21.2823984 84.25675,21.2782578 C83.693625,21.2554844 83.1942656,21.5391172 82.845625,22.0836094 M99.163,44.500125 C99.2814219,44.1572813 99.2955,43.9229219 99.3162031,36.7919375 C99.3162031,36.7919375 99.3323516,33.6409219 99.3344219,33.6102813 C99.3832812,32.8372266 98.8835078,32.1333203 98.0657344,31.8194609 C97.2231172,31.4948359 96.3154922,31.6952422 95.8057812,32.3291719 C95.8057812,32.3291719 94.3168125,34.0955625 94.3126719,34.0955625 C89.2031406,40.0982266 88.9890703,40.3756484 88.8644375,40.7309141 C88.7876067,40.9398873 88.7597019,41.1636918 88.7828672,41.3851328 C88.8135078,41.7039609 88.9584297,42.0178203 89.1969297,42.3113906 C90.3819766,43.7192031 96.0645703,45.8093906 97.8798203,45.4996719 C98.5104375,45.3853906 98.9692187,45.0305391 99.1634141,44.500125 M110.691328,42.0178203 C112.404719,41.3346172 116.141633,36.5799375 116.404562,34.7501953 C116.496484,34.1137813 116.296906,33.5651484 115.858,33.2144375 C115.570227,32.9982969 115.352016,32.9146563 108.568016,30.6874141 C108.568016,30.6874141 105.592148,29.7040156 105.553641,29.6853828 C104.833172,29.4063047 104.011258,29.6655078 103.458484,30.3466406 C102.883352,31.0464063 102.797641,31.9701797 103.256836,32.667875 L104.453891,34.6181094 C108.480234,41.1569844 108.788297,41.6199063 109.078141,41.8463984 C109.52657,42.1991797 110.097977,42.2563203 110.691328,42.0178203 M107.185047,25.1820391 C114.894891,23.3137891 115.193016,23.2156563 115.496937,23.0160781 C115.964,22.7018047 116.198773,22.1755313 116.157781,21.5349766 C116.157781,21.5146875 116.161922,21.4923281 116.157781,21.4699688 C115.959859,19.576875 112.643219,14.6532578 111.009742,13.8537031 C110.430055,13.5762813 109.851195,13.5945 109.370055,13.9166406 C109.07193,14.1104219 108.853719,14.4044063 104.725102,20.0501484 C104.725102,20.0501484 102.860992,22.5895938 102.838633,22.6140234 C102.347141,23.2119297 102.338859,24.068625 102.820414,24.8027578 C103.318117,25.5633906 104.15825,25.9348047 104.929234,25.7207344 C104.929234,25.7207344 104.898594,25.7758047 104.890727,25.7857422 C105.270008,25.6428906 105.94907,25.4760234 107.185047,25.1820391 M99.4466328,18.8162422 C99.3141328,15.7604609 98.3940859,2.15602344 98.2860156,1.52582031 C98.1311562,0.954414063 97.6843828,0.5465625 97.0438281,0.385492188 C95.075375,-0.101859375 87.5531016,2.00489063 86.1597812,3.44292969 C85.7113516,3.90999219 85.5461406,4.485125 85.6807109,4.99525 C85.9009922,5.44616406 95.2202969,20.1093594 95.2202969,20.1093594 C96.5970547,22.3428125 97.7212344,21.9962422 98.0901641,21.8798906 C98.4553672,21.7676797 99.5729219,21.4206953 99.4466328,18.8158281" id="Shape" fill="#BF2519"></path>
                    <path d="M3.98452344,51.0638437 C4.9555,51.9631875 6.79517969,52.21825 9.03070312,51.7636094 C11.1258594,51.3495469 12.4247734,50.4133516 13.6752422,46.4379375 L19.9023281,26.8726562 C20.2244687,25.8341875 20.2004531,24.9327734 19.8311094,24.2640625 C19.5309141,23.7253672 19.0315547,23.3601641 18.3255781,23.1725937 C17.2158906,22.8686719 15.8312656,22.8993125 14.9580078,25.8813906 L11.6906406,36.9799219 C11.6906406,36.9799219 5.035,24.4069141 5.03085937,24.4048437 C4.61058594,23.5642969 3.37875,22.9630781 2.12414062,23.4607812 C0.48859375,24.0827031 -0.0563125,25.5534531 0.59625,27.4482031 C0.59625,27.4482031 8.692,43.9229219 8.71063281,43.9676406 C8.71063281,43.9676406 8.93091406,44.5551953 8.93091406,44.6508437 C8.93091406,44.6508437 9.00420312,45.0980312 9.00420312,45.1141797 C8.98764062,45.7485234 8.77564062,46.2826641 8.39635937,46.6395859 C8.02328906,46.9907109 7.50488281,47.1741406 6.89910937,47.1497109 C6.89910937,47.1497109 5.63663281,47.1207266 5.54098437,47.1207266 C4.24372656,47.2801406 3.42760937,48.024625 3.29676562,49.1748906 C3.20567187,49.9156484 3.44417187,50.5661406 3.98452344,51.0638437 Z M35.8834844,32.5126016 L27.2146719,32.5126016 C26.9798984,32.3415937 26.8660312,32.0538203 27.0411797,31.1888437 C27.1513203,30.7342031 27.2697422,30.3263516 27.6167266,29.7549453 C27.7285234,29.5839375 27.844875,29.408375 27.9570859,29.2332266 C28.5914297,28.4311875 29.4501953,27.9173359 30.4273828,27.6887734 C33.4748828,26.9442891 35.5998516,28.4924687 35.9447656,31.1337734 C36.1099766,32.2865234 36.0014922,32.5126016 35.8834844,32.5126016 Z M41.2112266,31.0033437 C40.9317344,28.1765391 39.8406797,25.9695859 38.0519297,24.6172578 C36.1464141,23.1709375 33.4500391,22.7100859 30.2580312,23.2810781 C26.2561172,23.9746328 23.8533125,26.8341484 23.3026094,31.5623281 C22.6252031,37.2142812 23.5551875,41.4733281 26.0010547,43.8819297 C27.844875,45.7038047 30.5723047,46.4275859 33.8889453,45.9787422 C38.6187812,45.3137578 40.7458203,42.7175859 40.7458203,41.0754141 C40.7458203,39.8680078 40.0158281,38.9173203 38.9429922,38.7728125 C38.3289375,38.65025 37.8109453,38.7728125 36.6644062,39.7984453 C35.0122969,41.2385547 33.0972578,41.8178281 31.4000156,41.3876172 C30.1068984,41.0592656 29.0974141,40.1677891 28.6402891,38.9458906 C28.6402891,38.9458906 28.4365703,38.1384687 28.4485781,38.2279062 C28.3098672,37.4999844 28.2469297,36.7778594 28.6953594,36.483875 L28.8154375,36.4023047 L39.2059219,36.4023047 C40.1648906,36.4023047 40.6501719,36.2780859 40.9296641,35.9758203 C41.5010703,35.3418906 41.4555234,33.5307812 41.2112266,31.0033437 Z M50.6303203,16.052375 C49.8084062,15.7178125 48.8804922,15.8076641 48.0664453,16.2929453 C47.2834531,16.7562812 46.9567578,17.4618437 46.9567578,18.7367422 L46.9567578,43.5109297 C46.9567578,43.5109297 47.0933984,44.3961953 47.1078906,44.4347031 C47.2834531,45.0528984 47.7401641,45.5791719 48.3745078,45.8665312 C49.0784141,46.1932266 49.8899766,46.1870156 50.6162422,45.8462422 C51.5197266,45.4545391 52.0522109,44.5510547 52.0522109,43.4314297 L52.0522109,18.6100391 C52.0522109,18.6100391 51.8948672,17.4109141 51.8948672,17.3885547 C51.7499453,16.8130078 51.2750156,16.3157187 50.6303203,16.052375 Z M70.2361797,41.2161953 C66.8052578,41.2161953 66.2586953,38.1707656 66.150625,35.8723047 C66.1444141,35.8660937 66.1054922,34.5257734 66.1054922,34.5257734 C66.1054922,34.5257734 66.1444141,33.5307812 66.1444141,33.4918594 C66.3667656,29.514375 67.1886797,27.9459062 69.2875625,27.5094844 C70.6970312,27.1832031 71.7740078,27.3422031 72.5818437,27.9926953 C73.7950469,28.9698828 74.3296016,31.038125 74.2807422,34.4893359 C74.2459609,38.5297578 73.5424687,41.2161953 70.2361797,41.2161953 Z M70.4908281,23.0264297 C68.1923672,22.5568828 66.2259844,22.9506562 64.3349609,24.2313516 C64.3349609,24.2313516 64.1229609,24.4027734 64.0413906,24.4520469 L63.8720391,24.5377578 L63.3544609,24.7700469 L63.2070547,24.1887031 L63.0828359,23.9787734 L63.0397734,23.8483437 L63.0256953,23.8094219 C63.0256953,23.8094219 62.8994062,23.6400703 62.8807734,23.6135703 C62.3383516,22.7688828 60.8634609,22.3817344 59.5339062,23.1402969 C58.883,23.5096406 58.5099297,24.0297031 58.5099297,25.5820234 L58.5099297,49.8970156 C58.5099297,51.2290547 58.9281328,52.0571797 59.8415547,52.4936016 C60.6125391,52.8811641 61.4795859,52.9118047 62.2240703,52.5917344 C62.8563437,52.3143125 63.3213359,51.8244766 63.4948281,51.2290547 L63.6480312,50.1868594 L63.6480312,45.9787422 L63.6028984,45.30175 L63.6211172,45.1017578 L63.6476172,45.0061094 L63.8985391,44.2044844 L64.6595859,44.7100547 C64.6595859,44.7100547 64.8512969,44.8367578 64.9328672,44.9224687 L65.1614297,45.0731875 C65.1630859,45.0752578 65.4264297,45.2284609 65.4264297,45.2284609 C65.4305703,45.2284609 65.6711406,45.3464687 65.6711406,45.3464687 C67.7108125,46.3091641 70.4398984,46.1969531 72.6369141,45.0649062 C75.4028516,43.6210703 76.7692578,41.0592656 77.0851875,36.7575703 C77.7460312,28.1599766 75.7676406,24.0520625 70.4908281,23.0260156 L70.4908281,23.0264297 Z M81.1504531,43.1192266 L81.4340859,43.1192266 C81.6643047,43.1192266 81.8808594,43.1068047 81.8808594,42.8480156 C81.8808594,42.6153125 81.6829375,42.5912969 81.5053047,42.5912969 L81.1504531,42.5912969 L81.1504531,43.1192266 Z M80.91775,42.3830234 L81.5255937,42.3830234 C81.9235078,42.3830234 82.1094219,42.5279453 82.1094219,42.8579531 C82.1094219,43.1560781 81.9193672,43.2802969 81.6705156,43.3067969 L82.15,44.0392734 L81.8990781,44.0392734 L81.4460937,43.3270859 L81.1504531,43.3270859 L81.1504531,44.0392734 L80.91775,44.0392734 L80.91775,42.3830234 Z M81.454375,44.4226953 C82.1251562,44.4226953 82.6659219,43.8943516 82.6659219,43.1945859 C82.6659219,42.5072422 82.1255703,41.9772422 81.454375,41.9772422 C80.7811094,41.9772422 80.2407578,42.5072422 80.2407578,43.2090781 C80.2378543,43.5317929 80.364798,43.8421288 80.59304,44.0702929 C80.821282,44.298457 81.1316612,44.4252949 81.454375,44.4222812 L81.454375,44.4226953 Z M81.454375,41.7710391 C82.2377812,41.7710391 82.8965547,42.3871641 82.8965547,43.1945859 C82.8965547,44.0165 82.2377812,44.6305547 81.454375,44.6305547 C80.6688984,44.6305547 80.0121953,44.0165 80.0121953,43.2090781 C80.0121953,42.3871641 80.6688984,41.7710391 81.454375,41.7710391 Z" id="Shape" fill="#231F20"></path>
                </g>
            </g>
        </g>
    </g>
</svg>