<?xml version="1.0" encoding="UTF-8"?>
<svg width="122px" height="42px" viewBox="0 0 122 42" version="1.1" xmlns="http://www.w3.org/2000/svg" xmlns:xlink="http://www.w3.org/1999/xlink">
    <!-- Generator: Sketch 54.1 (76490) - https://sketchapp.com -->
    <title>Group 2</title>
    <desc>Created with Sketch.</desc>
    <g id="Website" stroke="none" stroke-width="1" fill="none" fill-rule="evenodd">
        <g id="Group-2">
            <path d="M7.9009901,0 L30.0860486,0 C36.7462746,-1.22346367e-15 42.1454545,5.39917995 42.1454545,12.0594059 C42.1454545,12.079405 42.1454545,12.099404 42.1454545,12.119403 C42.1454545,17.7980888 38.3712347,19.6745481 38.3712347,21 C38.3712347,22.3254519 42.1454545,24.2019112 42.1454545,29.880597 C42.1454545,29.900596 42.1454545,29.920595 42.1454545,29.9405941 C42.1454545,36.6008201 36.7462746,42 30.0860486,42 L7.9009901,42 C3.53739376,42 2.39499638e-14,38.4626062 1.95399252e-14,34.0990099 L-8.8817842e-16,7.9009901 C-1.42256485e-15,3.53739376 3.53739376,8.01579644e-16 7.9009901,0 Z M10.5298701,8.625 C9.49433622,8.625 8.65487013,9.46446609 8.65487013,10.5 L8.65487013,31.5 C8.65487013,32.5355339 9.49433622,33.375 10.5298701,33.375 L30.373799,33.375 C31.4093329,33.375 32.248799,32.5355339 32.248799,31.5 L32.248799,10.5 C32.248799,9.46446609 31.4093329,8.625 30.373799,8.625 L10.5298701,8.625 Z M14.2954545,14.625 L26.5893999,14.625 C27.2107203,14.625 27.7143999,15.1286797 27.7143999,15.75 C27.7143999,16.3713203 27.2107203,16.875 26.5893999,16.875 L14.2954545,16.875 C13.6741342,16.875 13.1704545,16.3713203 13.1704545,15.75 C13.1704545,15.1286797 13.6741342,14.625 14.2954545,14.625 Z M14.2954545,19.875 L26.5893999,19.875 C27.2107203,19.875 27.7143999,20.3786797 27.7143999,21 C27.7143999,21.6213203 27.2107203,22.125 26.5893999,22.125 L14.2954545,22.125 C13.6741342,22.125 13.1704545,21.6213203 13.1704545,21 C13.1704545,20.3786797 13.6741342,19.875 14.2954545,19.875 Z M17.6821429,25.125 L23.5225649,25.125 C24.1438853,25.125 24.6475649,25.6286797 24.6475649,26.25 C24.6475649,26.8713203 24.1438853,27.375 23.5225649,27.375 L17.6821429,27.375 C17.0608225,27.375 16.5571429,26.8713203 16.5571429,26.25 C16.5571429,25.6286797 17.0608225,25.125 17.6821429,25.125 Z" id="Combined-Shape" fill="#20C98B"></path>
            <path d="M55.2685315,11.4247835 L61.6783677,11.4247835 C63.7512864,11.4247835 65.3448188,11.8722474 66.4590126,12.7671885 C67.5732064,13.6621297 68.1302949,14.933636 68.1302949,16.5817455 C68.1302949,17.5032691 67.9100506,18.3450328 67.4695554,19.107062 C67.0290602,19.8690911 66.4287865,20.4538954 65.6687163,20.8614923 C66.7397243,21.1627597 67.5861534,21.7564246 68.208029,22.642505 C68.8299046,23.5285854 69.1408377,24.5741445 69.1408377,25.7792139 C69.1408377,27.6754259 68.540564,29.1241456 67.3399986,30.1254164 C66.1394332,31.1266872 64.4077084,31.6273151 62.1447721,31.6273151 L55.2685315,31.6273151 C54.7587302,31.6273151 54.3454545,31.2140395 54.3454545,30.7042382 L54.3454545,12.3478604 C54.3454545,11.8380591 54.7587302,11.4247835 55.2685315,11.4247835 Z M58.1026009,28.464024 L61.8597472,28.464024 C62.9134809,28.464024 63.7253619,28.2114949 64.2954145,27.706429 C64.8654671,27.2013632 65.1504892,26.4880792 65.1504892,25.5665556 C65.1504892,23.7235084 63.9844899,22.8019987 61.6524564,22.8019987 L58.1026009,22.8019987 L58.1026009,28.464024 Z M58.1026009,19.6918721 L61.108318,19.6918721 C62.1793259,19.6918721 62.9825699,19.479216 63.5180739,19.0538974 C64.0535779,18.6285788 64.3213259,17.9728892 64.3213259,17.0868088 C64.3213259,16.2716148 64.0578964,15.6513679 63.5310296,15.2260493 C63.0041627,14.8007307 62.2138743,14.5880746 61.1601407,14.5880746 L58.1026009,14.5880746 L58.1026009,19.6918721 Z M77.79523,32.0526316 C76.6378504,32.0526316 75.5970881,31.7602294 74.6729118,31.1754164 C73.7487356,30.5906033 73.0189064,29.7532699 72.4834024,28.6633911 C71.9478984,27.5735122 71.6801504,26.3197273 71.6801504,24.9019987 C71.6801504,23.5905997 71.9435799,22.3899788 72.4704467,21.3000999 C72.9973135,20.2102211 73.7444168,19.3330146 74.7117788,18.6684544 C75.6791409,18.0038941 76.7674069,17.6716189 77.9766094,17.6716189 C78.8748742,17.6716189 79.6910737,17.8621233 80.4252324,18.2431379 C81.1593911,18.6241525 81.7423907,19.1602231 82.1742488,19.8513658 L82.212841,18.5448468 C82.2202104,18.2953613 82.424584,18.0969354 82.6741783,18.0969354 L85.2107431,18.0969354 C85.4656438,18.0969354 85.6722816,18.3035732 85.6722816,18.5584738 L85.6722816,31.1657767 C85.6722816,31.4206773 85.4656438,31.6273151 85.2107431,31.6273151 L82.6739748,31.6273151 C82.4244618,31.6273151 82.2201239,31.429014 82.2126438,31.1796132 L82.1742488,29.899467 C81.7251164,30.6083313 81.1291612,31.1444019 80.3863654,31.5076949 C79.6435695,31.8709878 78.7798663,32.0526316 77.79523,32.0526316 Z M78.7798614,28.756429 C79.7990464,28.756429 80.6368385,28.3931415 81.2932628,27.6665556 C81.949687,26.9399697 82.2778942,26.0007386 82.2778942,24.8488341 C82.2778942,23.7146512 81.9540055,22.7842808 81.3062184,22.0576949 C80.6584314,21.331109 79.8163208,20.9678215 78.7798614,20.9678215 C77.7434021,20.9678215 76.9012915,21.331109 76.2535044,22.0576949 C75.6057173,22.7842808 75.2818286,23.7146512 75.2818286,24.8488341 C75.2818286,26.0007386 75.6100358,26.9399697 76.2664601,27.6665556 C76.9228843,28.3931415 77.7606764,28.756429 78.7798614,28.756429 Z M93.5752446,32.0526316 C92.5733339,32.0526316 91.6232604,31.9330125 90.7249956,31.6937708 C90.1969012,31.5531194 89.5971627,31.2918801 88.9257801,30.9100529 L88.9257763,30.9100596 C88.7604032,30.816009 88.6696813,30.6301236 88.6972848,30.4418902 L88.9956006,28.4079532 C89.0325812,28.155776 89.2669899,27.9813247 89.5191671,28.0183053 C89.5719224,28.0260417 89.622938,28.0428618 89.6699495,28.0680191 C90.2587432,28.3831015 90.7529377,28.6037108 91.152533,28.7298468 C91.9385147,28.9779493 92.6942549,29.1019987 93.4197765,29.1019987 C94.8880939,29.1019987 95.6222416,28.7209898 95.6222416,27.9589607 C95.6222416,27.5513637 95.466775,27.2412402 95.1558372,27.0285809 C94.8448994,26.8159217 94.197122,26.5678229 93.2124856,26.2842771 C91.6577966,25.841237 90.5479381,25.2785844 89.8828766,24.5963025 C89.2178152,23.9140206 88.8852895,22.9969411 88.8852895,21.8450366 C88.8852895,20.5513593 89.3603263,19.5323821 90.310414,18.7880746 C91.2605017,18.0437671 92.5646935,17.6716189 94.2230284,17.6716189 C95.0349216,17.6716189 95.8468026,17.7690863 96.6586957,17.964024 C97.127396,18.0765602 97.688925,18.2843302 98.3432825,18.587334 L98.3432454,18.5874141 C98.5279526,18.6729438 98.6348023,18.869395 98.6062282,19.0709282 L98.3275903,21.0365931 C98.2918029,21.2890025 98.0581732,21.4646093 97.8057638,21.4288218 C97.7619656,21.422612 97.7192875,21.4101386 97.6790388,21.3917844 C97.1645263,21.1571565 96.7337222,20.9936836 96.3866265,20.9013658 C95.6870165,20.7152889 95.0176465,20.6222518 94.3784966,20.6222518 C93.117471,20.6222518 92.4869677,20.967818 92.4869677,21.6589607 C92.4869677,22.0488361 92.6381158,22.3545292 92.9404164,22.5760493 C93.2427171,22.7975694 93.8429908,23.0412378 94.7412555,23.307062 C96.3995905,23.803267 97.5699083,24.3880712 98.252244,25.0614923 C98.9345797,25.7349134 99.2757425,26.6652839 99.2757425,27.8526316 C99.2757425,29.1640305 98.7704761,30.1918684 97.7599283,30.9361759 C96.7493804,31.6804834 95.3544998,32.0526316 93.5752446,32.0526316 Z M102.742998,18.0969354 L105.421599,18.0969354 C105.6765,18.0969354 105.883138,18.3035732 105.883138,18.5584738 L105.883138,31.1657767 C105.883138,31.4206773 105.6765,31.6273151 105.421599,31.6273151 L102.742998,31.6273151 C102.488097,31.6273151 102.28146,31.4206773 102.28146,31.1657767 L102.28146,18.5584738 C102.28146,18.3035732 102.488097,18.0969354 102.742998,18.0969354 Z M104.069343,15.3323784 C103.447467,15.3323784 102.933564,15.1241526 102.527617,14.7076949 C102.121671,14.2912371 101.918701,13.7817485 101.918701,13.1792139 C101.918701,12.5766792 102.121671,12.071621 102.527617,11.664024 C102.933564,11.256427 103.447467,11.0526316 104.069343,11.0526316 C104.691219,11.0526316 105.205122,11.256427 105.611069,11.664024 C106.017015,12.071621 106.219985,12.5766792 106.219985,13.1792139 C106.219985,13.7994701 106.017015,14.313389 105.611069,14.720986 C105.205122,15.128583 104.691219,15.3323784 104.069343,15.3323784 Z M110.179557,18.0969354 L112.735687,18.0969354 C112.987804,18.0969354 113.19327,18.2992472 113.19717,18.5513336 L113.216051,19.7716189 C113.596086,19.0981978 114.127264,18.5798486 114.809599,18.2165556 C115.491935,17.8532627 116.29086,17.6716189 117.206399,17.6716189 C118.761089,17.6716189 119.94868,18.1633862 120.769211,19.1469354 C121.589741,20.1304846 122,21.5526223 122,23.4133911 L122,31.1657767 C122,31.4206773 121.793362,31.6273151 121.538462,31.6273151 L118.85986,31.6273151 C118.60496,31.6273151 118.398322,31.4206773 118.398322,31.1657767 L118.398322,24.1045303 C118.398322,21.995659 117.612352,20.9412392 116.040389,20.9412392 C115.176672,20.9412392 114.507302,21.2380716 114.032259,21.8317455 C113.557215,22.4254194 113.319696,23.2627528 113.319696,24.3437708 L113.319696,31.1657767 C113.319696,31.4206773 113.113059,31.6273151 112.858158,31.6273151 L110.179557,31.6273151 C109.924656,31.6273151 109.718018,31.4206773 109.718018,31.1657767 L109.718018,18.5584738 C109.718018,18.3035732 109.924656,18.0969354 110.179557,18.0969354 Z" id="Basin" fill="#242739"></path>
        </g>
    </g>
</svg>