<?xml version="1.0" encoding="UTF-8"?>
<svg width="189px" height="48px" viewBox="0 0 189 48" version="1.1" xmlns="http://www.w3.org/2000/svg" xmlns:xlink="http://www.w3.org/1999/xlink">
    <title>Group 2</title>
    <g id="Logos" stroke="none" stroke-width="1" fill="none" fill-rule="evenodd">
        <g id="Group-2">
            <path d="M25.0889193,0 C35.6897036,0 44.4097036,7.37142857 46.8034291,17.3142857 L47.0380626,17.3146039 C48.8918851,17.32224 50.1778386,17.5131429 50.1778386,22.2857143 C50.1778386,27.2571429 48.7824897,27.2571429 46.8034291,27.2571429 C45.9485271,30.6857143 44.4097036,33.7714286 42.1869585,36.5142857 L42.1869585,41.1428571 C42.1869585,41.1428571 38.7673507,48 25.0889193,48 C11.4104879,48 7.99088007,41.1428571 7.99088007,41.1428571 L7.99088007,36.5142857 C5.76813497,33.9428571 4.22931145,30.6857143 3.37440948,27.2571429 C1.39534884,27.2571429 3.14217788e-13,27.2571429 3.14217788e-13,22.2857143 C3.14217788e-13,17.3142857 1.39534884,17.3142857 3.37440948,17.3142857 C5.76813497,7.37142857 14.488135,0 25.0889193,0 Z M25.2431428,7.53488372 C9.2309884,7.53488372 7.25581395,17.0410719 7.25581395,22.1832051 C7.25581395,26.3095304 8.01699641,32.9192453 16.9181959,35.3696636 C17.7915789,35.6100979 13.6485859,40.0265993 14.7017696,40.1806715 C15.2799142,40.2652494 17.8004513,39.4881443 19.8439029,38.3809249 C21.4523506,37.5094071 23.1831371,36.2783531 23.1831371,36.2783531 C23.1831371,36.2783531 24.5271247,36.3240716 25.2431428,36.3240716 C42.1247663,36.3240716 42.9497585,27.3073075 42.9760056,22.4731989 L42.9767442,22.1825714 C42.9767442,17.429622 41.2552972,7.53488372 25.2431428,7.53488372 Z" id="Combined-Shape" fill="#915DFF"></path>
            <path d="M66.7218146,11.7257293 C67.3076079,11.9684301 67.7011614,12.5226059 67.7411221,13.1571647 L67.7443159,13.2403701 L67.7441667,19.3597611 L67.8254484,19.2921207 C68.3007102,18.9051805 68.8151517,18.5667592 69.3615996,18.2823118 L69.5680039,18.1781847 L69.7562638,18.0888495 C72.0696276,17.0458641 74.7131533,17.0132108 77.0505677,17.9983019 C79.2262458,18.9100362 80.9565595,20.639402 81.8667222,22.8090162 C82.3193161,23.8595012 82.5617016,24.9876666 82.5810141,26.1263921 L82.5821672,26.3400105 L82.5819409,33.8909639 C82.5893256,34.3328168 82.415731,34.7584958 82.0977934,35.0728404 C81.6231544,35.533638 80.9197424,35.6680788 80.3084797,35.4148258 C79.7226863,35.172125 79.3291328,34.6179492 79.2891721,33.9833904 L79.2859784,33.900185 L79.2859924,26.3434339 C79.2914722,25.5755909 79.139677,24.8147492 78.8410328,24.1102718 C78.5452092,23.4220704 78.1221445,22.7958204 77.5967669,22.2671065 C77.0669651,21.7413778 76.441969,21.3211355 75.7561352,21.0292194 C74.34002,20.4299318 72.7424744,20.4238838 71.3225882,21.0121287 C70.6524716,21.2908767 70.0392994,21.6903044 69.5164998,22.1877484 C68.9916202,22.6944963 68.5629146,23.2920702 68.2507733,23.9523115 C67.9533134,24.5789744 67.7821263,25.2574485 67.7464551,25.9396166 L67.7406332,26.0970837 L67.7405453,33.8977002 C67.7484805,34.3423323 67.571879,34.7704068 67.2563547,35.0766462 C66.6106239,35.7151898 65.5709201,35.7151898 64.9252029,35.0766596 C64.6319136,34.7866548 64.461132,34.3966142 64.4454248,33.993985 L64.4444444,33.9075465 L64.4444444,12.6882638 L64.5379857,12.6881095 L64.5510027,12.6511978 C64.6107764,12.4926173 64.6956642,12.3435435 64.8032885,12.2099163 L64.8705724,12.131641 L64.9325009,12.0677147 C65.4071399,11.6069171 66.1105519,11.4724763 66.7218146,11.7257293 Z M182.965709,17.8976542 L183.131349,17.9651196 L183.331733,18.0530879 C184.327735,18.5044769 185.2342,19.1285385 186.014002,19.9009305 C186.834513,20.7311157 187.491795,21.7078724 187.952202,22.7816301 C188.399781,23.8321907 188.641441,24.9581739 188.66484,26.0969164 L188.666667,26.3105648 L188.666667,33.8744201 C188.666667,34.7891823 187.924647,35.5311524 187.017592,35.5311524 C186.573454,35.5373955 186.145963,35.3620089 185.841896,35.0526264 C185.545912,34.7625618 185.374152,34.3704305 185.360111,33.9681145 L185.35954,26.3068439 C185.364717,25.53922 185.210734,24.778847 184.906126,24.0709095 C184.317503,22.6823178 183.211567,21.5769877 181.824395,20.989605 C180.390532,20.3896849 178.775813,20.3896849 177.344843,20.988385 C175.956237,21.578663 174.850518,22.683776 174.259701,24.0721273 C173.979835,24.7279654 173.828005,25.4306967 173.811823,26.1454293 L173.8105,26.3105648 L173.8105,33.8744201 C173.8105,34.7891842 173.06853,35.5311524 172.159862,35.5311524 C171.717002,35.5361044 171.290994,35.361326 170.983311,35.0501904 C170.690124,34.7592346 170.520629,34.3678145 170.507503,33.9676349 L170.507095,25.7584586 L170.554085,25.7583042 L170.55867,25.6730433 C170.614523,24.81972 170.795068,23.979232 171.094057,23.1804147 L171.171268,22.9815953 L171.253393,22.7846122 C172.165704,20.6079087 173.897646,18.8769157 176.075506,17.9651196 C178.277364,17.0430927 180.750613,17.0206042 182.965709,17.8976542 Z M137.569949,18.0471232 C137.91532,18.5896327 137.91532,19.2828992 137.569949,19.8254087 C137.239594,20.3443309 136.650357,20.6356119 136.04139,20.5874622 L136.00312,20.5832285 L127.519265,20.5832595 C126.999529,20.594241 126.502093,20.7854795 126.106852,21.1242598 L126.02919,21.1939733 L125.954396,21.2675632 C125.326818,21.8969655 125.139451,22.8417821 125.479386,23.6628422 C125.8076,24.4555899 126.565215,24.982826 127.416083,25.0201975 L127.507589,25.0223169 L132.960172,25.0223191 C133.660112,25.0203769 134.35315,25.1605909 134.995222,25.4336043 C135.621779,25.6971047 136.19097,26.0800844 136.669942,26.5600992 C137.152327,27.0409591 137.534871,27.6123601 137.791996,28.2329947 C138.071261,28.8763309 138.212266,29.5711022 138.205889,30.2628532 C138.211587,30.9657566 138.070825,31.6621493 137.794335,32.3035512 C136.990592,34.2111231 135.143665,35.4660607 133.079678,35.5180921 L132.958023,35.5199131 L124.014905,35.5199131 C123.572646,35.5244551 123.147319,35.3499805 122.840172,35.0402713 C122.546567,34.7505804 122.376611,34.3599385 122.363446,33.9727217 L122.363037,33.8898371 C122.350602,33.4449405 122.523166,33.0147808 122.836672,32.7046916 C123.128178,32.4118815 123.519341,32.2416475 123.922465,32.2263562 L124.009,32.2254628 L132.969106,32.2255124 C133.482298,32.232384 133.975518,32.0269884 134.342809,31.6470658 C134.711844,31.2856849 134.919804,30.7910534 134.919804,30.2746875 C134.919804,29.7583215 134.711844,29.26369 134.331488,28.8908956 C133.997961,28.5447025 133.543787,28.342611 133.059037,28.3249692 L132.961706,28.3239122 L127.511141,28.3239007 C126.773827,28.3286385 126.043387,28.1820722 125.364083,27.8928676 C124.71354,27.614465 124.12163,27.2154563 123.619534,26.7168275 C123.114732,26.2152499 122.711752,25.6208321 122.43293,24.9666463 C122.143645,24.2891312 121.995723,23.5597286 121.998143,22.8256412 C121.997253,22.0835793 122.144573,21.3488118 122.430127,20.6678248 C122.702539,20.0058789 123.104342,19.4048992 123.610142,18.9019376 C124.111076,18.3990154 124.705263,17.9984715 125.354987,17.7246186 C125.981233,17.4540836 126.653271,17.3068995 127.330761,17.2905157 L127.500224,17.289149 L136.001279,17.2889947 L136.04139,17.2850697 C136.650357,17.23692 137.239594,17.528201 137.569949,18.0471232 Z M104.683379,17.2337841 L104.756386,17.2357412 C105.608788,17.2752209 106.293,17.9583118 106.333685,18.8099379 L106.335599,18.8902571 L106.335576,26.4554283 C106.328642,27.2212474 106.48141,27.9801121 106.784886,28.685389 C107.375997,30.0721168 108.480277,31.1769967 109.864645,31.7682478 C111.298081,32.372222 112.914779,32.372222 114.347168,31.76869 C115.035861,31.4768423 115.661569,31.0546071 116.189657,30.5254065 C116.717022,29.9965093 117.138595,29.3719188 117.432695,28.6829706 C117.715035,28.0292686 117.868955,27.3279408 117.886648,26.6151171 L117.88831,26.4504317 L117.888515,18.9053241 C117.87632,18.4588695 118.052119,18.0277859 118.363001,17.7270847 C118.673955,17.4101326 119.102142,17.2357067 119.521129,17.245142 C119.967375,17.2343531 120.398555,17.4067805 120.71419,17.7222433 C121.008784,18.0166752 121.178709,18.4117038 121.191411,18.8148258 L121.191872,26.4590963 C121.196938,27.6727202 120.95376,28.8745901 120.476972,29.9911799 C120.019083,31.0614261 119.362418,32.0352557 118.54014,32.862723 C117.712163,33.6891671 116.732183,34.347896 115.654428,34.8025389 C113.398075,35.7560548 110.851613,35.7560548 108.595078,34.8024621 C106.425002,33.8844943 104.697754,32.158193 103.780816,29.9928893 C103.3273,28.9426677 103.083704,27.8146596 103.062935,26.6752338 L103.061656,26.4614738 L103.061507,19.442209 L103.032422,19.4423633 L103.021263,18.901642 C103.01208,18.4566203 103.184917,18.0271093 103.499834,17.7123645 C103.793757,17.4186027 104.187709,17.2485406 104.600947,17.2346339 L104.683379,17.2337841 Z M142.239246,11.974662 L142.30294,12.0344632 L142.362707,12.0961319 C142.594596,12.3488115 142.739696,12.6725001 142.775675,13.0293685 L142.782383,13.1192549 L142.783536,13.1998823 L142.783386,17.171212 L149.999236,17.1720874 C150.413067,17.1509295 150.81952,17.2727787 151.154086,17.516038 L151.229988,17.5743201 L151.303161,17.6368537 C151.637522,17.9434251 151.823474,18.3791404 151.813497,18.8107858 C151.821298,19.2620516 151.636409,19.6952754 151.297247,20.0091385 C151.003046,20.2711729 150.632594,20.429876 150.228545,20.4635218 L150.126858,20.4693154 L142.794435,20.4691265 L142.794575,26.4572281 C142.790865,27.1143506 142.903473,27.7660704 143.126739,28.3834229 L143.184857,28.5370282 L143.247567,28.689101 C143.540404,29.3762062 143.962922,30.0005049 144.494396,30.5302539 C145.019058,31.059584 145.642022,31.4815078 146.329509,31.7728593 C146.939385,32.0329345 147.589838,32.1833888 148.245023,32.2177665 L148.408897,32.2239389 L148.57278,32.2254628 L150.024661,32.2258699 C150.484162,32.208224 150.933359,32.3647912 151.305639,32.685476 C151.624812,32.9928225 151.805135,33.4167278 151.805135,33.8596973 C151.805135,34.3026667 151.624812,34.726572 151.288765,35.0495035 C150.987214,35.3166269 150.606812,35.4760646 150.192913,35.5051121 L150.096824,35.5094904 L150.020092,35.5086545 L148.550243,35.508645 C147.33443,35.5157766 146.130324,35.2710758 145.017147,34.7913823 C142.847363,33.87309 141.120274,32.1469479 140.202567,29.9809037 C139.779638,28.9964813 139.540167,27.9439252 139.495064,26.8695061 L139.488638,26.6543445 L139.487496,26.4504317 L139.487595,13.2103518 C139.479157,12.7656641 139.656597,12.3375939 139.971774,12.0344632 C140.596675,11.4165178 141.590541,11.3965841 142.239246,11.974662 Z M92.8855783,17.3151082 L92.8997306,17.3148492 C94.0934538,17.3121192 95.2739329,17.5647543 96.3587772,18.0544608 C98.5200003,19.0143454 100.245759,20.7447317 101.20095,22.9118858 C102.167957,25.1540241 102.167957,27.6953094 101.200334,29.9388711 C100.736372,31.0063713 100.080455,31.9797749 99.2635884,32.8123446 C97.5588836,34.5360266 95.2301736,35.4989565 92.8137777,35.4828685 C91.6042087,35.4934399 90.4046595,35.2629862 89.2864658,34.8054824 C88.2154419,34.3703388 87.2386709,33.7323893 86.4104015,32.9272244 C85.568977,32.1113432 84.9004781,31.1345333 84.4456722,30.0572017 C83.9585554,28.9172042 83.712739,27.6887954 83.7236711,26.45713 C83.7105924,24.0655376 84.6544463,21.7679194 86.3460794,20.0746444 C87.1781336,19.2454206 88.1600089,18.5814576 89.2396104,18.1179743 C90.325411,17.651742 91.4851568,17.3829996 92.6642792,17.323758 L92.8855783,17.3151082 Z M160.699098,17.3151097 L160.713331,17.3148376 C161.907156,17.3118756 163.087759,17.5645382 164.171521,18.0540319 C166.33598,19.0103913 168.063435,20.7424773 169.013923,22.9101796 C169.988679,25.1495097 169.995784,27.6915844 169.031188,29.9417747 C168.559906,31.0093033 167.897837,31.9820119 167.077515,32.8121277 C165.413065,34.4969666 163.152043,35.4550836 160.796296,35.4824927 L160.627874,35.482865 C159.417975,35.494281 158.218009,35.2637472 157.101238,34.8059118 C156.028398,34.3726158 155.050599,33.7339949 154.223752,32.9268739 C153.383387,32.110533 152.715198,31.1341768 152.260012,30.0586659 C150.794133,26.6552975 151.54715,22.7029608 154.163316,20.074802 C154.995171,19.2451062 155.977244,18.5810093 157.056952,18.1179971 C158.141605,17.652123 159.300109,17.3834011 160.478025,17.3238261 L160.699098,17.3151097 Z M160.648519,20.6459421 L160.640048,20.6459349 C159.872521,20.6393981 159.112095,20.793223 158.405763,21.0983036 C157.719795,21.3917792 157.096013,21.8131156 156.568911,22.3386332 C156.0375,22.8716328 155.61492,23.5028729 155.32338,24.200355 C155.020655,24.9120775 154.86646,25.6780646 154.870227,26.4580603 C154.864744,27.2244319 155.017591,27.983686 155.319278,28.6884845 C155.912017,30.0745974 157.016122,31.179302 158.401919,31.773045 C159.108601,32.0751169 159.869814,32.2291171 160.642669,32.2256546 C162.978446,32.2322812 165.090689,30.8389993 166.003564,28.6880485 C166.305472,27.9837142 166.458298,27.2245634 166.452426,26.4504584 C166.457545,25.6774431 166.304509,24.9115405 166.001216,24.1962124 C165.712663,23.5021727 165.291336,22.8710998 164.76378,22.3412929 C164.229367,21.8125478 163.598515,21.3910679 162.902741,21.0985511 C162.190353,20.7947327 161.423035,20.6406685 160.648519,20.6459421 Z M92.8410925,20.6459351 C92.0722528,20.639422 91.3105086,20.793283 90.603378,21.0981844 C89.9162501,21.392602 89.2909892,21.8141649 88.7635116,22.3376809 C88.2336417,22.8717268 87.8120912,23.5031352 87.5199032,24.2022562 C87.2140868,24.9138339 87.0564055,25.6799915 87.0565297,26.4540242 C87.0517824,27.1658633 87.1832524,27.8714608 87.4433064,28.533011 L87.5055979,28.6848773 C88.0969281,30.0721168 89.2012081,31.1769967 90.5878971,31.7692319 C91.2959658,32.0713859 92.0584935,32.225421 92.8317911,32.2219706 C94.3750388,32.2239383 95.8559051,31.6132781 96.9484462,30.5243749 C97.4774102,29.9966692 97.8999842,29.3722871 98.1933981,28.6846868 C98.494934,27.9799983 98.6477858,27.2207184 98.6423933,26.4473815 C98.6466681,25.6740489 98.493587,24.9079208 98.1906555,24.1912483 C97.6136138,22.7934102 96.5049282,21.6817109 95.1033818,21.0983897 C94.3914151,20.7941247 93.6242493,20.640091 92.8410925,20.6459351 Z" id="Shape" fill="#181E2D" fill-rule="nonzero"></path>
        </g>
    </g>
</svg>