<?xml version="1.0" encoding="UTF-8"?>
<svg width="956px" height="212px" viewBox="0 0 956 212" version="1.1" xmlns="http://www.w3.org/2000/svg" xmlns:xlink="http://www.w3.org/1999/xlink">
    <title>Group 10</title>
    <g id="Junkbox-Brand" stroke="none" stroke-width="1" fill="none" fill-rule="evenodd">
        <g id="Group-10">
            <path d="M299.008,47.336 C303.424,47.336 307.042667,46.0173333 309.864,43.38 C312.685333,40.7426667 314.096,37.4 314.096,33.352 C314.096,29.1813333 312.685333,25.7466667 309.864,23.048 C307.042667,20.3493333 303.424,19 299.008,19 C294.714667,19 291.157333,20.3493333 288.336,23.048 C285.514667,25.7466667 284.104,29.1813333 284.104,33.352 C284.104,37.4 285.514667,40.7426667 288.336,43.38 C291.157333,46.0173333 294.714667,47.336 299.008,47.336 Z M280.792,193.984 C290.850667,193.984 298.456,190.917333 303.608,184.784 C308.76,178.650667 311.336,169.634667 311.336,157.736 L311.336,157.736 L311.336,58.744 L286.864,58.744 L286.864,157.736 C286.864,163.133333 286.066667,166.997333 284.472,169.328 C282.877333,171.658667 280.24,172.824 276.56,172.824 C273.738667,172.824 270.488,171.904 266.808,170.064 L266.808,170.064 L260,188.096 C266.869333,192.021333 273.8,193.984 280.792,193.984 Z M369.136,151.48 C375.146667,151.48 380.697333,150.406667 385.788,148.26 C390.878667,146.113333 395.202667,143.077333 398.76,139.152 L398.76,139.152 L400.416,149.64 L421.576,149.64 L421.576,58.744 L397.104,58.744 L397.104,106.4 C397.104,113.392 395.110667,119.096 391.124,123.512 C387.137333,127.928 381.893333,130.136 375.392,130.136 C369.504,130.136 364.812,128.173333 361.316,124.248 C357.82,120.322667 356.072,114.925333 356.072,108.056 L356.072,108.056 L356.072,58.744 L331.6,58.744 L331.6,109.528 C331.6,122.408 335.004,132.62 341.812,140.164 C348.62,147.708 357.728,151.48 369.136,151.48 Z M467.6,149.64 L467.6,101.984 C467.6,94.992 469.624,89.288 473.672,84.872 C477.72,80.456 483.056,78.248 489.68,78.248 C495.813333,78.248 500.628,80.18 504.124,84.044 C507.62,87.908 509.368,93.336 509.368,100.328 L509.368,100.328 L509.368,149.64 L533.84,149.64 L533.84,98.856 C533.84,85.976 530.405333,75.764 523.536,68.22 C516.666667,60.676 507.405333,56.904 495.752,56.904 C489.741333,56.904 484.16,57.9773333 479.008,60.124 C473.856,62.2706667 469.501333,65.3066667 465.944,69.232 L465.944,69.232 L464.288,58.744 L443.128,58.744 L443.128,149.64 L467.6,149.64 Z M578.392,149.64 L578.392,111 L610.96,149.64 L641.872,149.64 L600.84,102.168 L636.352,58.744 L607.648,58.744 L578.392,95.36 L578.392,20.84 L554.104,20.84 L554.104,149.64 L578.392,149.64 Z M704.64,151.664 C713.226667,151.664 720.862667,149.670667 727.548,145.684 C734.233333,141.697333 739.446667,136.085333 743.188,128.848 C746.929333,121.610667 748.8,113.392 748.8,104.192 C748.8,94.992 746.929333,86.7733333 743.188,79.536 C739.446667,72.2986667 734.233333,66.6866667 727.548,62.7 C720.862667,58.7133333 713.226667,56.72 704.64,56.72 C698.752,56.72 693.232,57.7013333 688.08,59.664 C682.928,61.6266667 678.512,64.3866667 674.832,67.944 L674.832,67.944 L674.832,20.84 L650.36,20.84 L650.36,149.64 L671.52,149.64 L673.176,138.6 C676.856,142.893333 681.394667,146.144 686.792,148.352 C692.189333,150.56 698.138667,151.664 704.64,151.664 Z M699.672,130.32 C692.312,130.32 686.301333,127.866667 681.64,122.96 C676.978667,118.053333 674.648,111.797333 674.648,104.192 C674.648,96.5866667 676.978667,90.3306667 681.64,85.424 C686.301333,80.5173333 692.312,78.064 699.672,78.064 C706.909333,78.064 712.858667,80.5173333 717.52,85.424 C722.181333,90.3306667 724.512,96.5866667 724.512,104.192 C724.512,111.797333 722.181333,118.053333 717.52,122.96 C712.858667,127.866667 706.909333,130.32 699.672,130.32 Z M808.44,151.664 C818.253333,151.664 826.870667,149.64 834.292,145.592 C841.713333,141.544 847.448,135.932 851.496,128.756 C855.544,121.58 857.568,113.392 857.568,104.192 C857.568,94.992 855.544,86.804 851.496,79.628 C847.448,72.452 841.713333,66.84 834.292,62.792 C826.870667,58.744 818.253333,56.72 808.44,56.72 C798.626667,56.72 790.009333,58.744 782.588,62.792 C775.166667,66.84 769.432,72.452 765.384,79.628 C761.336,86.804 759.312,94.992 759.312,104.192 C759.312,113.392 761.336,121.58 765.384,128.756 C769.432,135.932 775.166667,141.544 782.588,145.592 C790.009333,149.64 798.626667,151.664 808.44,151.664 Z M808.44,130.32 C801.08,130.32 795.1,127.836 790.5,122.868 C785.9,117.9 783.6,111.674667 783.6,104.192 C783.6,96.7093333 785.9,90.484 790.5,85.516 C795.1,80.548 801.08,78.064 808.44,78.064 C815.8,78.064 821.78,80.548 826.38,85.516 C830.98,90.484 833.28,96.7093333 833.28,104.192 C833.28,111.674667 830.98,117.9 826.38,122.868 C821.78,127.836 815.8,130.32 808.44,130.32 Z M887.768,149.64 L898.256,134 L907.64,118.728 L917.024,134 L927.144,149.64 L955.664,149.64 L924.016,103.088 L953.456,58.744 L925.672,58.744 L914.816,75.304 L907.824,86.896 L901.016,75.304 L890.344,58.744 L862.008,58.744 L891.632,103.088 L859.8,149.64 L887.768,149.64 Z" id="junkbox" fill="#070A22" fill-rule="nonzero"></path>
            <path d="M151.428571,151.425714 L60.5714286,151.425714 L60.5714286,91 L90.8571429,91 L90.857,121.139 L121.142,121.139 L121.142,30.285 L30.285,30.285 L30.285,181.714 L181.714,181.714 L181.714286,0 C198.440624,0 212,13.5593761 212,30.2857143 L212,181.714286 C212,198.27336 198.710455,211.728496 182.215115,211.995943 L181.714286,212 L30.2857143,212 C13.5593761,212 0,198.440624 0,181.714286 L0,30.2857143 C0,13.7266395 13.2895446,0.271504219 29.7848846,0.00405742043 L30.2857143,0 L151.428571,0 L151.428571,151.425714 Z" id="Path" fill="#FB2746"></path>
        </g>
    </g>
</svg>