<?xml version="1.0" encoding="UTF-8"?>
<svg width="184px" height="32px" viewBox="0 0 184 32" version="1.1" xmlns="http://www.w3.org/2000/svg" xmlns:xlink="http://www.w3.org/1999/xlink">
    <!-- Generator: Sketch 62 (91390) - https://sketch.com -->
    <title>Group</title>
    <desc>Created with Sketch.</desc>
    <g id="Website" stroke="none" stroke-width="1" fill="none" fill-rule="evenodd">
        <g id="Group">
            <path d="M32.8081569,23.2173567 L32.8081569,18.4286508 L35.6316863,18.4286508 L39.3361569,23.2173567 L45.4123922,23.2173567 L40.3526275,16.237592 L45.3220392,8.89641549 L39.2232157,8.89641549 L35.6542745,14.1820625 L27.6806275,14.1820625 L27.6806275,21.6587684 L28.9455686,23.2173567 L32.8081569,23.2173567 Z M32.8081569,13.1204155 L32.8081569,8.89641549 L27.6806275,8.89641549 L27.6806275,13.1204155 L32.8081569,13.1204155 Z M57.3628235,23.2173567 L57.3628235,19.7387684 L61.8127059,19.7387684 L63.0776471,18.2705331 L63.0776471,8.89641549 L57.9049412,8.89641549 L57.9049412,15.5147684 L52.3482353,15.5147684 C52.2729413,15.5147684 52.1825884,15.4884154 52.0771765,15.4357096 C51.9717646,15.3830038 51.8663531,15.3114743 51.7609412,15.2211214 C51.6555293,15.1307684 51.5689412,15.0328862 51.5011765,14.9274743 C51.4334118,14.8220624 51.3995294,14.7166509 51.3995294,14.611239 L51.3995294,14.611239 L51.3995294,14.1594743 L46.272,14.1594743 C46.272,15.0479448 46.4188235,15.838533 46.7124706,16.531239 C47.0061176,17.223945 47.4164707,17.8074743 47.9435294,18.2818273 C48.4705881,18.7561802 49.0992942,19.117592 49.8296471,19.3660625 C50.5599999,19.6145331 51.3618822,19.7387684 52.2352941,19.7387684 L52.2352941,19.7387684 L52.2352941,23.2173567 L57.3628235,23.2173567 Z M51.3995294,13.1204155 L51.3995294,8.89641549 L46.272,8.89641549 L46.272,13.1204155 L51.3995294,13.1204155 Z M76.2026667,23.2173567 C76.6243138,23.2173567 77.0760785,23.1571213 77.5579608,23.0366508 C78.039843,22.9161803 78.4840784,22.7430037 78.8906667,22.5171214 C79.2972549,22.291239 79.6323136,22.0164154 79.8958431,21.6926508 C80.1593727,21.3688862 80.2911373,21.0037096 80.2911373,20.5971214 L80.2911373,20.5971214 L80.2911373,17.7510037 C80.2911373,17.5100624 80.2309018,17.2804156 80.1104314,17.0620625 C79.9899609,16.8437095 79.8431374,16.6517095 79.6699608,16.4860625 C79.4967842,16.3204156 79.3198431,16.1773565 79.1391373,16.0568861 C78.9584314,15.9364156 78.807843,15.853592 78.6873725,15.8084155 C79.1843137,15.4771213 79.575843,15.0931213 79.8619608,14.6564155 C80.1480785,14.2197097 80.2911373,13.6851214 80.2911373,13.0526508 C80.2911373,12.4201802 80.1556078,11.847945 79.884549,11.3359449 C79.6134902,10.8239448 79.2558433,10.387239 78.8116078,10.0258273 C78.3673724,9.66441549 77.8553727,9.38582737 77.2756078,9.19006255 C76.695843,8.99429773 76.1047844,8.89641549 75.5024314,8.89641549 L75.5024314,8.89641549 L64.2986667,8.89641549 L64.2986667,13.1204155 L74.8247843,13.1204155 C74.9151373,13.1204155 75.009255,13.1806509 75.1071373,13.3011214 C75.2050195,13.4215918 75.2539608,13.5194744 75.2539608,13.5947684 C75.2539608,13.6700624 75.2238433,13.7717095 75.1636078,13.8997096 C75.1033724,14.0277097 75.0280784,14.0917096 74.9377255,14.0917096 L74.9377255,14.0917096 L64.2986667,14.0917096 L64.2986667,21.7491214 L65.5636078,23.2173567 L76.2026667,23.2173567 Z M74.7344314,19.0385331 L69.2906667,19.0385331 L69.2906667,18.067239 L74.8247843,18.067239 C74.8699608,18.067239 74.9490196,18.0973565 75.0619608,18.157592 C75.174902,18.2178274 75.2614901,18.3307685 75.3217255,18.4964155 C75.3217255,18.8578273 75.1259607,19.0385331 74.7344314,19.0385331 L74.7344314,19.0385331 Z M96.1493333,13.0074743 L96.1493333,10.093592 L94.9747451,8.82865078 L81.5347451,8.82865078 L81.5347451,13.0074743 L96.1493333,13.0074743 Z M95.1780392,23.2173567 L95.1780392,18.9707684 L86.4138039,18.9707684 L86.4138039,17.9091214 L95.1780392,17.9091214 L95.1780392,14.0691214 L81.5347451,14.0691214 L81.5347451,21.6587684 L83.0029804,23.2173567 L95.1780392,23.2173567 Z M117.360941,26.131239 L110.358588,17.8187684 C111.352471,17.4724156 112.101647,16.8738274 112.606118,16.0230037 C113.110588,15.1721801 113.370353,14.1820625 113.385412,13.0526508 L113.385412,13.0526508 L113.385412,13.0074743 C113.385412,12.3750037 113.249882,11.806533 112.978824,11.3020625 C112.707765,10.7975921 112.346353,10.3646508 111.894588,10.003239 C111.442824,9.64182725 110.930823,9.36700361 110.358588,9.17876843 C109.786353,8.99053325 109.199059,8.89641549 108.596706,8.89641549 L108.596706,8.89641549 L97.3929412,8.89641549 L97.3929412,13.1204155 L107.535059,13.1204155 C107.625412,13.1204155 107.71953,13.1806509 107.817412,13.3011214 C107.915294,13.4215918 107.964235,13.5194744 107.964235,13.5947684 C107.964235,13.6700624 107.934118,13.7717095 107.873882,13.8997096 C107.813647,14.0277097 107.730824,14.0917096 107.625412,14.0917096 L107.625412,14.0917096 L97.3929412,14.0917096 L97.3929412,21.7491214 L98.6578824,23.2173567 L102.384941,23.2173567 L102.384941,18.067239 L104.372706,18.067239 L111.284706,26.131239 L117.360941,26.131239 Z M130.101961,23.2173567 L131.366902,21.6587684 L131.366902,18.9707684 L120.569725,18.9707684 C120.328784,18.9707684 120.129255,18.8766507 119.971137,18.6884155 C119.81302,18.5001803 119.733961,18.2931214 119.733961,18.067239 L119.733961,13.9787684 C119.733961,13.8733565 119.767843,13.767945 119.835608,13.6625331 C119.903373,13.5571213 119.982431,13.4667683 120.072784,13.3914743 C120.163137,13.3161803 120.261019,13.2521801 120.366431,13.1994743 C120.471843,13.1467685 120.562196,13.1204155 120.63749,13.1204155 L131.366902,13.1204155 L131.366902,8.89641549 L120.547137,8.89641549 C119.658667,8.89641549 118.85302,9.02065078 118.130196,9.26912137 C117.407373,9.51759196 116.782431,9.88276854 116.255373,10.3646508 C115.728314,10.846533 115.321726,11.4338271 115.035608,12.1265331 C114.74949,12.8192391 114.606431,13.6022977 114.606431,14.4757096 L114.606431,18.4286508 C114.606431,19.1364154 114.75702,19.7839449 115.058196,20.371239 C115.359372,20.9585331 115.77349,21.4630036 116.300549,21.8846508 C116.827608,22.306298 117.460078,22.6338274 118.197961,22.867239 C118.935843,23.1006507 119.733961,23.2173567 120.592314,23.2173567 L130.101961,23.2173567 Z M144.491922,23.2173567 C145.350275,23.2173567 146.125804,23.1006507 146.81851,22.867239 C147.511216,22.6338274 148.094745,22.306298 148.569098,21.8846508 C149.043451,21.4630036 149.408628,20.9585331 149.664627,20.371239 C149.920627,19.7839449 150.048627,19.1364154 150.048627,18.4286508 L150.048627,10.477592 L148.761098,8.89641549 L138.393098,8.89641549 C137.504628,8.89641549 136.70651,9.02065078 135.998745,9.26912137 C135.290981,9.51759196 134.688627,9.88276854 134.191686,10.3646508 C133.694745,10.846533 133.310745,11.4338271 133.039686,12.1265331 C132.768627,12.8192391 132.633098,13.6022977 132.633098,14.4757096 L132.633098,21.6587684 L133.898039,23.2173567 L144.491922,23.2173567 Z M144.085333,18.9481802 L137.760627,18.9481802 L137.760627,13.9787684 C137.760627,13.8733565 137.79451,13.767945 137.862275,13.6625331 C137.930039,13.5571213 138.009098,13.4667683 138.099451,13.3914743 C138.189804,13.3161803 138.287686,13.2521801 138.393098,13.1994743 C138.49851,13.1467685 138.588863,13.1204155 138.664157,13.1204155 L144.921098,13.1204155 L144.921098,18.067239 C144.921098,18.2931214 144.842039,18.4964155 144.683922,18.6771214 C144.525804,18.8578273 144.326275,18.9481802 144.085333,18.9481802 Z M171.260235,26.131239 L164.257882,17.8187684 C165.251765,17.4724156 166.000941,16.8738274 166.505412,16.0230037 C167.009882,15.1721801 167.269647,14.1820625 167.284706,13.0526508 L167.284706,13.0526508 L167.284706,13.0074743 C167.284706,12.3750037 167.149176,11.806533 166.878118,11.3020625 C166.607059,10.7975921 166.245647,10.3646508 165.793882,10.003239 C165.342118,9.64182725 164.830118,9.36700361 164.257882,9.17876843 C163.685647,8.99053325 163.098353,8.89641549 162.496,8.89641549 L162.496,8.89641549 L151.292235,8.89641549 L151.292235,13.1204155 L161.434353,13.1204155 C161.524706,13.1204155 161.618824,13.1806509 161.716706,13.3011214 C161.814588,13.4215918 161.863529,13.5194744 161.863529,13.5947684 C161.863529,13.6700624 161.833412,13.7717095 161.773176,13.8997096 C161.712941,14.0277097 161.630118,14.0917096 161.524706,14.0917096 L161.524706,14.0917096 L151.292235,14.0917096 L151.292235,21.7491214 L152.557176,23.2173567 L156.284235,23.2173567 L156.284235,18.067239 L158.272,18.067239 L165.184,26.131239 L171.260235,26.131239 Z M183.142902,13.0074743 L183.142902,10.093592 L181.968314,8.82865078 L168.528314,8.82865078 L168.528314,13.0074743 L183.142902,13.0074743 Z M182.171608,23.2173567 L182.171608,18.9707684 L173.407373,18.9707684 L173.407373,17.9091214 L182.171608,17.9091214 L182.171608,14.0691214 L168.528314,14.0691214 L168.528314,21.6587684 L169.996549,23.2173567 L182.171608,23.2173567 Z" id="KYBERCORE" stroke="#FFFFFF" stroke-width="0.862745098" fill="#242739" fill-rule="nonzero"></path>
            <path d="M10.4150168,0.126478729 L19.8326919,7.27542929 C19.9875064,7.39294889 20.0784314,7.57612445 20.0784314,7.7704911 L20.0784314,23.9191242 C20.0784314,24.1134908 19.9875064,24.2966664 19.8326919,24.414186 L10.4150168,31.5631366 C10.192861,31.7317749 9.88557041,31.7317749 9.66341461,31.5631366 L0.245739469,24.414186 C0.09092494,24.2966664 4.67892259e-16,24.1134908 0,23.9191242 L0,7.7704911 C-2.45847655e-16,7.57612445 0.09092494,7.39294889 0.245739469,7.27542929 L9.66341461,0.126478729 C9.88557041,-0.0421595763 10.192861,-0.0421595763 10.4150168,0.126478729 Z M9.66945732,3.09289067 L2.56852426,8.34844612 C2.41015709,8.46565712 2.31674208,8.65101304 2.31674208,8.84803735 L2.31674208,22.8415779 C2.31674208,23.0386023 2.41015709,23.2239582 2.56852426,23.3411692 L9.66945732,28.5967246 C9.88914965,28.7593237 10.1892817,28.7593237 10.4089741,28.5967246 L17.5099071,23.3411692 C17.6682743,23.2239582 17.7616893,23.0386023 17.7616893,22.8415779 L17.7616893,8.84803735 C17.7616893,8.65101304 17.6682743,8.46565712 17.5099071,8.34844612 L10.4089741,3.09289067 C10.1892817,2.93029159 9.88914965,2.93029159 9.66945732,3.09289067 Z M7.78145566,7.37554064 L6.4625414,15.6526203 C6.44189241,15.7822066 6.44189181,15.9142452 6.46253961,16.0438318 L7.78146003,24.3214383 C7.79496341,24.4061861 7.73720839,24.4858344 7.65246059,24.4993378 C7.61013539,24.5060817 7.56690419,24.4950441 7.53299223,24.4688357 L4.36809406,22.0228833 C4.2919468,21.9640338 4.24736048,21.8732261 4.24736048,21.7769886 L4.24736048,9.91998576 C4.24736048,9.82374822 4.2919468,9.7329405 4.36809406,9.67409103 L7.53298808,7.22814185 C7.60089003,7.17566467 7.6984766,7.18816891 7.75095379,7.25607087 C7.77716253,7.28998322 7.78820006,7.33321501 7.78145566,7.37554064 Z M15.8310709,11.5827263 L15.8310709,20.4553844 C15.8310709,20.6270181 15.6919343,20.7661547 15.5203006,20.7661547 C15.4488309,20.7661547 15.3795454,20.7415208 15.3241169,20.6964033 L9.64794519,16.076131 C9.51483415,15.9677817 9.49476079,15.7720395 9.6031101,15.6389284 C9.6191272,15.6192508 9.63749381,15.6016088 9.65779982,15.5863962 L15.3339715,11.3340104 C15.4713335,11.2311037 15.6661098,11.2590352 15.7690166,11.3963972 C15.8092985,11.4501664 15.8310709,11.5155418 15.8310709,11.5827263 Z M11.5426483,6.3251312 L13.7133771,8.0169459 C13.8487516,8.12245357 13.8729634,8.31772715 13.7674557,8.45310163 C13.7638329,8.45775 13.7600786,8.46229438 13.7561973,8.46672925 L8.76585058,14.1688755 C8.70933358,14.2334539 8.61116643,14.2399889 8.54658812,14.1834719 C8.49928172,14.1420707 8.48158212,14.0762443 8.50174643,14.0167014 L11.0572602,6.47056633 C11.1123131,6.30800158 11.288727,6.22084598 11.4512918,6.27589886 C11.4842882,6.28707314 11.5151708,6.30371592 11.5426483,6.3251312 Z M11.5426483,25.3644841 L13.7133771,23.6726694 C13.8487516,23.5671617 13.8729634,23.3718881 13.7674557,23.2365137 C13.7638329,23.2318653 13.7600786,23.2273209 13.7561973,23.222886 L8.76585058,17.5207397 C8.70933358,17.4561614 8.61116643,17.4496264 8.54658812,17.5061434 C8.49928172,17.5475446 8.48158212,17.613371 8.50174643,17.6729139 L11.0572602,25.219049 C11.1123131,25.3816137 11.288727,25.4687693 11.4512918,25.4137164 C11.4842882,25.4025421 11.5151708,25.3858994 11.5426483,25.3644841 Z" id="Shape" fill="#46E39D"></path>
        </g>
    </g>
</svg>