<?xml version="1.0" encoding="UTF-8"?>
<svg width="170px" height="36px" viewBox="0 0 170 36" version="1.1" xmlns="http://www.w3.org/2000/svg" xmlns:xlink="http://www.w3.org/1999/xlink">
    <title>Group 8</title>
    <defs>
        <linearGradient x1="0%" y1="99.8527336%" x2="100%" y2="0.147266359%" id="linearGradient-1">
            <stop stop-color="#774BFF" offset="0%"></stop>
            <stop stop-color="#524CFD" offset="100%"></stop>
        </linearGradient>
    </defs>
    <g id="Page-1" stroke="none" stroke-width="1" fill="none" fill-rule="evenodd">
        <g id="Group-8">
            <path d="M48.8482261,24.9518272 L48.8482261,17.6514559 C48.8482261,16.0262849 49.7782659,14.8654485 51.1733256,14.8654485 C52.5425508,14.8654485 53.2400807,15.819914 53.2400807,17.2129177 L53.2400807,24.9518272 L57.4510942,24.9518272 L57.4510942,16.3616377 C57.4510942,13.4208521 55.7460212,11.3571429 52.8525641,11.3571429 C51.018319,11.3571429 49.7524315,12.1310338 48.7707228,13.5498339 L48.6932195,13.5498339 L48.6932195,11.7440883 L44.6372126,11.7440883 L44.6372126,24.9518272 L48.8482261,24.9518272 Z" id="Path" fill="#15273A" fill-rule="nonzero"></path>
            <path d="M65.3887254,11.1428571 C67.3356527,11.1428571 68.66391,11.4888017 69.6157002,12.1806908 L69.6772422,12.2263045 C70.7907592,13.0349416 71.3340894,14.2891542 71.3558024,15.8919463 L71.3564807,15.9925738 L71.3564807,22.648036 C71.3564807,23.6763077 71.4541572,24.265683 71.7919551,24.5109851 L71.8215006,24.5311706 L71.8215006,24.7117452 L67.7396593,24.7117452 C67.5419697,24.4403225 67.4151905,23.9564822 67.3141035,23.3279516 L67.3004739,23.2413524 L67.248805,23.2413524 C66.4737718,24.3505961 65.3112221,25.0470979 63.3219703,25.0470979 C60.6868576,25.0470979 58.8009436,23.6282978 58.8009436,21.022865 C58.8009436,18.1078757 61.126043,17.2307993 63.8644935,16.8696502 L64.2527471,16.8197941 C66.4369922,16.5303215 67.2229705,16.2533262 67.2229705,15.3992574 C67.2229705,14.5479773 66.6804473,13.9804573 65.4145598,13.9804573 C64.0955943,13.9804573 63.424121,14.5523947 63.277886,15.6230253 L63.2703014,15.6830174 L59.3951357,15.6830174 C59.4984734,13.2323627 61.3843874,11.1428571 65.3887254,11.1428571 Z M67.3263083,18.4174321 C66.7837851,18.7011921 66.0087519,18.907563 65.1562155,19.1139339 L64.9912443,19.1515005 C63.4831207,19.5042535 62.8569504,19.9225166 62.8569504,20.8938831 C62.8569504,21.9515341 63.6319836,22.3642759 64.6653611,22.3642759 C66.2170173,22.3642759 67.2928061,21.4389527 67.32554,20.0561619 L67.3263083,19.9910104 L67.3263083,18.4174321 Z" id="Shape" fill="#15273A" fill-rule="nonzero"></path>
            <path d="M77.604892,24.9518272 L77.604892,17.6514559 C77.604892,16.0262849 78.5349318,14.8654485 79.9299914,14.8654485 C81.2992167,14.8654485 81.9967465,15.819914 81.9967465,17.2129177 L81.9967465,24.9518272 L86.20776,24.9518272 L86.20776,16.3616377 C86.20776,13.4208521 84.5026871,11.3571429 81.6092299,11.3571429 C79.7749848,11.3571429 78.5090973,12.1310338 77.5273886,13.5498339 L77.4498853,13.5498339 L77.4498853,11.7440883 L73.3938785,11.7440883 L73.3938785,24.9518272 L77.604892,24.9518272 Z" id="Path" fill="#15273A" fill-rule="nonzero"></path>
            <path d="M94.6362456,11.1428571 C98.8989279,11.1428571 101.689047,14.1610319 101.689047,18.1336721 C101.689047,22.1063123 98.8989279,25.124487 94.6362456,25.124487 C90.3993977,25.124487 87.5576094,22.1063123 87.5576094,18.1336721 C87.5576094,14.1610319 90.3993977,11.1428571 94.6362456,11.1428571 Z M94.6104111,14.1094391 C92.776166,14.1094391 91.8202918,15.7346101 91.8202918,18.1336721 C91.8202918,20.532734 92.776166,22.1321087 94.6104111,22.1321087 C96.4446563,22.1321087 97.4263649,20.532734 97.4263649,18.1336721 C97.4263649,15.7346101 96.4446563,14.1094391 94.6104111,14.1094391 Z" id="Shape" fill="#15273A" fill-rule="nonzero"></path>
            <path d="M107.219966,6.21428571 L107.219966,12.947137 L107.297469,12.947137 C108.124171,11.8120969 109.260886,11.0640023 111.069297,11.0640023 C114.505277,11.0640023 116.727039,14.0821771 116.727039,18.0548173 C116.727039,22.4401993 114.505277,25.0714286 111.095132,25.0714286 C109.37033,25.0714286 107.969275,24.375157 107.136474,23.0558579 L107.090794,22.981923 L107.039125,22.981923 L107.039125,24.6586867 L103.008952,24.6586867 L103.008952,6.21428571 L107.219966,6.21428571 Z M109.855078,14.2627516 C107.994999,14.2627516 107.090794,15.8879226 107.090794,18.0548173 C107.090794,20.2475083 108.17584,21.7436975 109.906747,21.7436975 C111.560151,21.7436975 112.464357,20.3248974 112.464357,18.0290209 C112.464357,15.7589408 111.560151,14.2627516 109.855078,14.2627516 Z" id="Shape" fill="#15273A" fill-rule="nonzero"></path>
            <path d="M122.456707,24.9855384 L122.456707,19.0523744 C122.456707,16.1889779 124.110111,14.924956 126.693555,15.2861051 L126.796892,15.2861051 L126.796892,11.674614 C126.616051,11.5972249 126.357707,11.5714286 125.97019,11.5714286 C124.368455,11.5714286 123.283409,12.2679304 122.353369,13.8415087 L122.275866,13.8415087 L122.275866,11.7777995 L118.245693,11.7777995 L118.245693,24.9855384 L122.456707,24.9855384 Z" id="Path" fill="#15273A" fill-rule="nonzero"></path>
            <path d="M134.06136,11.1428571 C136.008288,11.1428571 137.336545,11.4888017 138.288335,12.1806908 L138.349877,12.2263045 C139.463394,13.0349416 140.006724,14.2891542 140.028437,15.8919463 L140.029116,15.9925738 L140.029116,22.648036 C140.029116,23.6763077 140.126792,24.265683 140.46459,24.5109851 L140.494135,24.5311706 L140.494135,24.7117452 L136.412294,24.7117452 C136.214605,24.4403225 136.087825,23.9564822 135.986738,23.3279516 L135.973109,23.2413524 L135.92144,23.2413524 C135.146407,24.3505961 133.983857,25.0470979 131.994605,25.0470979 C129.359492,25.0470979 127.473578,23.6282978 127.473578,21.022865 C127.473578,18.1078757 129.798678,17.2307993 132.537128,16.8696502 L132.925382,16.8197941 C135.109627,16.5303215 135.895605,16.2533262 135.895605,15.3992574 C135.895605,14.5479773 135.353082,13.9804573 134.087195,13.9804573 C132.768229,13.9804573 132.096756,14.5523947 131.950521,15.6230253 L131.942936,15.6830174 L128.067771,15.6830174 C128.171108,13.2323627 130.057022,11.1428571 134.06136,11.1428571 Z M135.998943,18.4174321 C135.45642,18.7011921 134.681387,18.907563 133.82885,19.1139339 L133.663879,19.1515005 C132.155756,19.5042535 131.529585,19.9225166 131.529585,20.8938831 C131.529585,21.9515341 132.304618,22.3642759 133.337996,22.3642759 C134.889652,22.3642759 135.965441,21.4389527 135.998175,20.0561619 L135.998943,19.9910104 L135.998943,18.4174321 Z" id="Shape" fill="#15273A" fill-rule="nonzero"></path>
            <path d="M146.277527,24.9518272 L146.277527,17.6514559 C146.277527,16.0262849 147.207567,14.8654485 148.602626,14.8654485 C149.971852,14.8654485 150.669381,15.819914 150.669381,17.2129177 L150.669381,24.9518272 L154.880395,24.9518272 L154.880395,16.3616377 C154.880395,13.4208521 153.175322,11.3571429 150.281865,11.3571429 C148.44762,11.3571429 147.181732,12.1310338 146.200023,13.5498339 L146.12252,13.5498339 L146.12252,11.7440883 L142.066513,11.7440883 L142.066513,24.9518272 L146.277527,24.9518272 Z" id="Path" fill="#15273A" fill-rule="nonzero"></path>
            <path d="M170,6.21428571 L170,24.6586867 L165.969828,24.6586867 L165.969828,22.8787375 L165.918159,22.8787375 C165.117291,24.2459449 163.748066,25.0714286 162.017158,25.0714286 C158.632847,25.0714286 156.230244,22.4659957 156.230244,18.0548173 C156.230244,13.9273989 158.607013,11.0640023 162.017158,11.0640023 C163.810807,11.0640023 164.859771,11.7836025 165.627333,12.8295927 L165.711483,12.947137 L165.788987,12.947137 L165.788987,6.21428571 L170,6.21428571 Z M163.153874,14.2369552 C161.474635,14.2369552 160.492927,15.7847372 160.492927,18.0032245 C160.492927,20.299101 161.474635,21.7436975 163.102205,21.7436975 C164.858947,21.7436975 165.892324,20.2217119 165.892324,18.0548173 C165.892324,15.8363299 164.988119,14.2369552 163.153874,14.2369552 Z" id="Shape" fill="#15273A" fill-rule="nonzero"></path>
            <path d="M15.430738,2.70723542 C17.1882968,4.46220404 18.066395,6.76279414 18.0650325,9.06296127 C18.0698687,9.10703477 18.0729,9.15358453 18.0743836,9.20221149 L18.0754802,9.27665996 C18.0754802,14.3584754 21.7504008,18.0279801 26.8397166,18.0279801 C26.9157353,18.0279801 26.9875229,18.0311689 27.0551889,18.0374341 C29.3574302,18.0371042 31.6613308,18.9139084 33.4188372,20.6688246 C36.931232,24.1760431 36.931232,29.8623677 33.4188372,33.3695862 C29.9064423,36.8768046 24.2117251,36.8768046 20.6993303,33.3695862 C19.0907734,31.7633999 18.2188806,29.7001838 18.083652,27.598546 C18.0680944,27.5136325 18.0588281,27.4196175 18.0557438,27.3169065 L18.0545881,27.2382492 C18.0545881,22.2072518 14.0227951,18.1310907 9.00400112,18.0500706 L8.85161749,18.0488414 C8.71762808,18.0488414 8.59708736,18.0392387 8.48938005,18.0206315 C6.38604918,17.884791 4.31978795,17.0141832 2.7112311,15.407997 C-0.801163743,11.9007785 -0.952586444,6.06325433 2.5598084,2.55603588 C6.07220324,-0.95118257 11.9183432,-0.799983028 15.430738,2.70723542 Z M10.9904551,25.0257421 C13.5046737,27.5362554 13.5046737,31.6066017 10.9904551,34.117115 C8.47623642,36.6276283 4.39988261,36.6276283 1.88566397,34.117115 C-0.628554658,31.6066017 -0.628554658,27.5362554 1.88566397,25.0257421 C4.39988261,22.5152288 8.47623642,22.5152288 10.9904551,25.0257421 Z M34.1674693,1.88288498 C36.6816879,4.39339828 36.6816879,8.46374458 34.1674693,10.9742579 C31.6532507,13.4847712 27.5768969,13.4847712 25.0626782,10.9742579 C22.5484596,8.46374458 22.5484596,4.39339828 25.0626782,1.88288498 C27.5768969,-0.627628326 31.6532507,-0.627628326 34.1674693,1.88288498 Z" id="Shape" fill="url(#linearGradient-1)"></path>
        </g>
    </g>
</svg>