<?xml version="1.0" encoding="UTF-8"?>
<svg width="590px" height="150px" viewBox="0 0 590 150" version="1.1" xmlns="http://www.w3.org/2000/svg" xmlns:xlink="http://www.w3.org/1999/xlink">
    <title>Group 4</title>
    <g id="Branding" stroke="none" stroke-width="1" fill="none" fill-rule="evenodd">
        <g id="Group-4">
            <path d="M150,0 L150,150 L0,150 L0,0 L150,0 Z M140,10 L10,10 L10,140 L140,140 L140,10 Z M70,110 L70,120 L30,120 L30,110 L70,110 Z M70,90 L70,100 L30,100 L30,90 L70,90 Z M120,70 L120,80 L30,80 L30,70 L120,70 Z M120,50 L120,60 L30,60 L30,50 L120,50 Z M120,30 L120,40 L30,40 L30,30 L120,30 Z" id="Shape" fill="#006EFF"></path>
            <path d="M225.638697,127 L225.638697,115.660907 L216.071223,115.660907 L216.071223,98.0853132 C220.85496,103.187905 225.4109,105.228942 231.903114,105.228942 C246.482122,105.228942 256.50519,93.4362851 256.50519,76.2008639 C256.50519,58.8520518 246.709919,47.1727862 232.130911,47.1727862 C224.841407,47.1727862 219.943772,49.4406048 214.818339,55.450324 L214.818339,48.7602592 L195,48.7602592 L195,60.0993521 L202.972895,60.0993521 L202.972895,115.660907 L195,115.660907 L195,127 L225.638697,127 Z M229.96684,93.8898488 C221.538351,93.8898488 216.071223,86.8596112 216.071223,75.9740821 C216.071223,65.6555076 221.766148,58.511879 229.96684,58.511879 C238.053633,58.511879 243.179066,65.3153348 243.179066,76.2008639 C243.179066,87.0863931 238.053633,93.8898488 229.96684,93.8898488 Z M292.155421,105.228942 C308.898501,105.228942 319.946655,93.7764579 319.946655,76.2008639 C319.946655,58.62527 309.012399,47.1727862 292.155421,47.1727862 C275.412341,47.1727862 264.250288,58.62527 264.250288,75.7473002 C264.250288,93.8898488 275.070646,105.228942 292.155421,105.228942 Z M292.155421,93.8898488 C282.929642,93.8898488 277.576413,87.199784 277.576413,75.9740821 C277.576413,65.2019438 283.157439,58.511879 292.155421,58.511879 C301.153403,58.511879 306.620531,65.2019438 306.620531,76.2008639 C306.620531,87.199784 301.153403,93.8898488 292.155421,93.8898488 Z M353.546713,105.228942 C367.784025,105.228942 375.75692,98.8790497 375.75692,87.7667387 C375.75692,82.6641469 373.820646,78.3552916 370.289792,75.6339093 C367.328431,73.3660907 363.911476,72.2321814 354.457901,70.4179266 C348.193483,69.1706263 346.257209,68.6036717 344.776528,67.9233261 C342.38466,66.7894168 341.359573,65.4287257 341.359573,63.5010799 C341.359573,59.6457883 344.093137,57.7181425 349.674164,57.7181425 C353.318916,57.7181425 357.191465,58.0583153 360.722318,58.7386609 L360.722318,65.9956803 L371.770473,65.9956803 L371.770473,49.4406048 C360.836217,47.6263499 356.166378,47.1727862 349.674164,47.1727862 C342.270761,47.1727862 337.600923,48.5334773 333.728374,51.9352052 C330.311419,54.9967603 328.489043,59.3056156 328.489043,64.4082073 C328.489043,73.9330454 333.728374,78.0151188 349.560265,80.9632829 C359.013841,82.7775378 359.013841,82.7775378 360.60842,83.6846652 C362.316897,84.8185745 363.228085,86.1792657 363.228085,87.9935205 C363.228085,92.1889849 359.81113,94.5701944 353.888408,94.5701944 C349.104671,94.5701944 343.751442,93.8898488 339.878893,92.7559395 L339.878893,84.9319654 L328.830738,84.9319654 L328.830738,101.713823 C336.348039,103.981641 345.232122,105.228942 353.546713,105.228942 Z M409.926471,105.00216 C414.710208,105.00216 419.380046,104.095032 424.049885,102.394168 L421.316321,91.5086393 C418.127163,92.8693305 414.596309,93.663067 411.52105,93.663067 C405.256632,93.663067 403.320358,91.1684665 403.320358,83.0043197 L403.320358,60.0993521 L421.885813,60.0993521 L421.885813,48.7602592 L403.320358,48.7602592 L403.320358,31.4114471 L391.70271,31.4114471 L390.22203,48.7602592 L380.426759,48.7602592 L380.426759,60.0993521 L390.22203,60.0993521 L390.22203,84.7051836 C390.22203,98.5388769 396.600346,105.00216 409.926471,105.00216 Z M459.130623,127 L459.130623,115.660907 L449.563149,115.660907 L449.563149,98.0853132 C454.346886,103.187905 458.902826,105.228942 465.39504,105.228942 C479.974048,105.228942 489.997116,93.4362851 489.997116,76.2008639 C489.997116,58.8520518 480.201845,47.1727862 465.622837,47.1727862 C458.333333,47.1727862 453.435698,49.4406048 448.310265,55.450324 L448.310265,48.7602592 L428.491926,48.7602592 L428.491926,60.0993521 L436.464821,60.0993521 L436.464821,115.660907 L428.491926,115.660907 L428.491926,127 L459.130623,127 Z M463.458766,93.8898488 C455.030277,93.8898488 449.563149,86.8596112 449.563149,75.9740821 C449.563149,65.6555076 455.258074,58.511879 463.458766,58.511879 C471.545559,58.511879 476.670992,65.3153348 476.670992,76.2008639 C476.670992,87.0863931 471.545559,93.8898488 463.458766,93.8898488 Z M517.218858,105.228942 C525.191753,105.228942 530.544983,103.187905 535.670415,98.0853132 L535.670415,103.641469 L555.374856,103.641469 L555.374856,92.3023758 L547.515859,92.3023758 L547.515859,70.7580994 C547.515859,63.0475162 546.832468,59.1922246 544.782295,55.6771058 C541.36534,50.0075594 534.417532,47.1727862 523.824971,47.1727862 C516.535467,47.1727862 509.929354,48.3066955 502.753749,50.9146868 L505.71511,61.800216 C512.54902,59.0788337 517.674452,57.9449244 522.799885,57.9449244 C531.228374,57.9449244 534.417532,60.3261339 534.417532,66.7894168 L534.417532,68.9438445 C523.711073,68.9438445 519.155133,69.2840173 514.713091,70.0777538 C503.095444,72.1187905 497.400519,78.1285097 497.400519,88.2203024 C497.400519,99.1058315 504.462226,105.228942 517.218858,105.228942 Z M519.952422,94.2300216 C513.460208,94.2300216 510.612745,92.1889849 510.612745,87.6533477 C510.612745,83.4578834 513.346309,80.849892 518.927336,79.7159827 C522.344291,78.9222462 524.736159,78.8088553 534.417532,78.6954644 L534.417532,83.6846652 C534.417532,87.3131749 534.075836,88.5604752 532.367359,90.2613391 C529.633795,92.8693305 525.533449,94.2300216 519.952422,94.2300216 Z M590,103.641469 L590,92.3023758 L582.254902,92.3023758 L582.254902,22 L561.069781,22 L561.069781,33.3390929 L569.042676,33.3390929 L569.042676,92.3023758 L560.38639,92.3023758 L560.38639,103.641469 L590,103.641469 Z" id="postpal" fill="#141C3A" fill-rule="nonzero"></path>
        </g>
    </g>
</svg>