<?xml version="1.0" encoding="UTF-8"?>
<svg width="122px" height="36px" viewBox="0 0 122 36" version="1.1" xmlns="http://www.w3.org/2000/svg" xmlns:xlink="http://www.w3.org/1999/xlink">
    <title>shipable-logo</title>
    <defs>
        <linearGradient x1="95.7263177%" y1="37.8372923%" x2="13.6735831%" y2="38.9449582%" id="linearGradient-1">
            <stop stop-color="#4951FF" offset="0%"></stop>
            <stop stop-color="#3A41CE" offset="100%"></stop>
        </linearGradient>
    </defs>
    <g id="Logos" stroke="none" stroke-width="1" fill="none" fill-rule="evenodd">
        <g id="shipable-logo" fill-rule="nonzero">
            <g id="Group-45" fill="url(#linearGradient-1)">
                <path d="M18.5635024,0 L30.1643879,6.834077 L18.5635024,13.415051 L18.563376,10.2351634 C14.6996604,10.3686931 11.6083105,13.5544251 11.6083105,17.4646993 L11.6083105,17.9710366 L4.83950511,17.9710366 L4.83950511,17.4646993 C4.83950511,9.80225715 10.9609489,3.57467319 18.5634095,3.43949257 L18.5635024,0 Z" id="Combined-Shape"></path>
                <path d="M13.7239973,18.0289633 L25.3248827,24.8630404 L13.7239973,31.4440143 L13.7238709,28.2641268 C9.86015526,28.3976564 6.76880538,31.5833883 6.76880538,35.4936626 L6.76880538,36 L0,36 L0,35.4936626 C0,27.8312206 6.12144378,21.6036365 13.7239044,21.4684559 L13.7239973,18.0289633 Z" id="Combined-Shape" transform="translate(12.662441, 27.014482) rotate(180.000000) translate(-12.662441, -27.014482) "></path>
            </g>
            <path d="M73.9460242,14.3518605 C76.9154007,14.3518605 78.6276688,17.0083019 78.6276688,20.2308703 C78.6276688,23.8671468 76.7203321,26.1752024 73.77263,26.1752024 C72.4843996,26.1752024 71.4842478,25.6997509 70.7521248,24.8294149 L70.6948821,24.7598852 L70.6298593,24.7598852 L70.6298593,29.4848671 L66.5334204,29.4848671 L66.5334204,14.7002462 L70.4347908,14.7002462 L70.4347908,16.0066929 L70.4998137,16.0066929 C71.3017619,14.9615356 72.4288247,14.3518605 73.9460242,14.3518605 Z M40.220844,9.95349018 C43.3965596,9.95349018 46.3173595,11.2766201 46.4385495,14.5989567 L46.4413624,14.7002462 L41.9547864,14.7002462 C41.8247407,13.8510559 41.2178607,13.3067032 39.9824268,13.3067032 C38.9854099,13.3067032 38.2918329,13.7639595 38.2918329,14.3954087 C38.2918329,15.2981968 39.5802806,15.4370873 41.8444063,15.9851309 L42.167124,16.0646326 C44.6877396,16.7016027 47.1349393,17.7608152 47.1349393,20.9711901 C47.1349393,24.3679512 44.1222144,26.1752024 40.459261,26.1752024 C36.468159,26.1752024 33.4329904,24.4679379 33.3095945,20.9477721 L33.3067485,20.8405452 L37.9450444,20.8405452 C38.0943561,22.0619692 39.0203597,22.6507426 40.4751532,22.6691259 L40.5459581,22.6695706 C41.4346036,22.6695706 42.5183177,22.3211848 42.5183177,21.3848981 C42.5183177,20.5324579 41.6559429,20.2575823 40.0620514,19.8536704 L39.2561408,19.6503899 C36.7233087,19.0015562 33.8269312,18.0517173 33.8269312,14.8744391 C33.8269312,11.303485 36.7312847,9.95349018 40.220844,9.95349018 Z M95.8587217,10.2365536 L95.8587217,15.8542741 L95.9237445,15.8542741 C96.7040187,14.8744391 97.6793614,14.3518605 99.1748866,14.3518605 C102.144263,14.3518605 103.856531,17.0083019 103.856531,20.2308703 C103.856531,24.0195655 102.057566,26.1752024 99.131538,26.1752024 C97.7721272,26.1752024 96.4959803,25.6524059 95.7518897,24.4428643 L95.7070018,24.3679512 L95.6636532,24.3679512 L95.6636532,25.8050425 L91.7622828,25.8050425 L91.7622828,10.2365536 L95.8587217,10.2365536 Z M115.994128,14.3300863 C117.728071,14.3300863 119.050202,14.8962132 120.068893,15.8325 C121.388266,17.0510584 122.018159,18.9832606 121.999602,21.1345169 L121.997904,21.2542534 L114.108466,21.2542534 C114.346883,22.538926 115.04046,23.322794 116.275894,23.322794 C116.966481,23.322794 117.475221,23.0589155 117.782605,22.5507571 L117.814768,22.4953778 L121.781161,22.4953778 C121.542744,23.4969868 120.76247,24.4768217 119.678756,25.1735932 C118.660065,25.8268166 117.554676,26.1098801 116.145848,26.1098801 C112.526243,26.1098801 110.098724,23.6276314 110.098724,20.2308703 C110.098724,16.8776573 112.504569,14.3300863 115.994128,14.3300863 Z M84.8698615,14.3518605 C86.5604554,14.3518605 87.6441694,14.5696016 88.4894664,15.0921802 C89.6132307,15.7951053 90.1769566,16.8939467 90.2009354,18.3275502 L90.2017346,18.4236191 L90.2019198,24.0599387 L90.2035095,24.2206855 L90.2065554,24.3583307 C90.2259776,25.0277303 90.3109884,25.4166331 90.5827898,25.6102709 L90.6135459,25.6308496 L90.6135459,25.8050425 L86.5821297,25.8050425 C86.4376345,25.5561954 86.3127986,25.2283495 86.2263447,24.6710301 L86.213667,24.5856922 L86.1703185,24.5856922 C85.4333928,25.6090755 84.2629817,26.0881058 82.8324793,26.0881058 C80.7083998,26.0881058 79.1478516,24.9340781 79.1478516,22.756667 C79.1478516,20.3238383 80.9913775,19.5940139 83.0860879,19.3463885 L83.4532967,19.3038948 L83.6176541,19.2836541 C85.5230744,19.0432931 86.0929493,18.7631375 86.1254707,18.1545146 L86.1269699,18.0970074 C86.1269699,17.4873323 85.8452042,17.030076 84.9565586,17.030076 C84.0890714,17.030076 83.6346733,17.5280662 83.5127137,18.3012355 L83.504382,18.3582968 L79.6246858,18.3582968 C79.7113829,16.1591116 81.4019767,14.3518605 84.8698615,14.3518605 Z M52.2717439,10.2365536 L52.2717439,15.9631446 L52.3367667,15.9631446 C53.1603893,15.0050838 54.1574062,14.3518605 55.6962801,14.3518605 C58.2282696,14.3518605 59.5494101,16.0377841 59.5755798,18.5434081 L59.5759763,18.6195861 L59.5759763,25.8050425 L55.4795374,25.8050425 L55.4795374,19.6211952 C55.4795374,18.4671673 55.0027032,17.7050734 53.9406635,17.7050734 C52.9173531,17.7050734 52.2924627,18.5898478 52.2722497,19.7584959 L52.2717439,19.8171621 L52.2717439,25.8050425 L48.1753048,25.8050425 L48.1753048,10.2365536 L52.2717439,10.2365536 Z M65.0595693,14.7002462 L65.0595693,25.8050425 L60.9631304,25.8050425 L60.9631304,14.7002462 L65.0595693,14.7002462 Z M109.080033,10.2365536 L109.080033,25.8050425 L104.875222,25.8050425 L104.875222,10.2365536 L109.080033,10.2365536 Z M86.2353413,20.796997 C85.8668785,20.9820771 85.401751,21.1477351 84.7669237,21.293971 L84.6531188,21.3195757 C83.4610334,21.580865 83.0925706,21.9292509 83.0925706,22.5824742 C83.0925706,23.322794 83.6994504,23.6494055 84.3713531,23.6494055 C85.3079916,23.6494055 86.2028159,23.1243204 86.2344753,21.8472382 L86.2353413,21.7768321 L86.2353413,20.796997 Z M72.5588703,17.6397511 C71.3017619,17.6397511 70.4781394,18.8155531 70.4781394,20.4050631 C70.4781394,22.0163473 71.3017619,23.1486011 72.5588703,23.1486011 C73.77263,23.1486011 74.4662069,22.1034437 74.4662069,20.4050631 C74.4662069,18.7066825 73.77263,17.6397511 72.5588703,17.6397511 Z M97.7877327,17.3349136 C96.5306245,17.3349136 95.7070018,18.5760379 95.7070018,20.1873221 C95.7070018,21.8203803 96.5306245,23.0397304 97.7877327,23.0397304 C99.0448409,23.0397304 99.6950693,21.9292509 99.6950693,20.1873221 C99.6950693,18.4453932 99.0231667,17.3349136 97.7877327,17.3349136 Z M116.080825,17.0953984 C114.975862,17.0953984 114.350049,17.8278992 114.121691,19.0056456 L114.108466,19.0768424 L117.923139,19.0768424 C117.749745,17.8357181 117.056168,17.0953984 116.080825,17.0953984 Z M65.0595693,10.2365536 L65.0595693,13.3502514 L60.9631304,13.3502514 L60.9631304,10.2365536 L65.0595693,10.2365536 Z" id="Combined-Shape" fill="#15273A"></path>
        </g>
    </g>
</svg>