<?xml version="1.0" encoding="UTF-8"?>
<svg width="355px" height="93px" viewBox="0 0 355 93" version="1.1" xmlns="http://www.w3.org/2000/svg" xmlns:xlink="http://www.w3.org/1999/xlink">
    <!-- Generator: Sketch 62 (91390) - https://sketch.com -->
    <title>Group 39</title>
    <desc>Created with Sketch.</desc>
    <g id="Website" stroke="none" stroke-width="1" fill="none" fill-rule="evenodd">
        <g id="Group-39" fill-rule="nonzero">
            <g id="userforge" fill="#269EFF">
                <path d="M95,46.8708366 C95,55.8553354 93.0242832,63.8137073 89.0727903,70.746191 C85.1212974,77.6786746 79.5508736,83.0582012 72.3613518,86.8849322 C65.17183,90.7116632 56.9122361,92.625 47.5823224,92.625 C38.1426449,92.625 29.82817,90.7116632 22.6386482,86.8849322 C15.4491264,83.0582012 9.8787026,77.6786746 5.92720971,70.746191 C1.97571681,63.8137073 0,55.8553354 0,46.8708366 C0,46.1921386 0.0110010076,45.5196174 0.0330030473,44.8532729 C0.0187897266,44.8154662 0.0077887108,29.8643752 0,0 L94.5002572,0 C94.7762575,0 95,0.221765563 95,0.507355868 L95,44.6693753 C94.988975,45.5181542 95,46.1914003 95,46.8708366 Z M39.1255016,56.3778561 C38.635646,55.9746118 38.1692045,55.5282503 37.7261765,55.0387714 C35.211458,52.2603886 33.9541176,48.6349921 33.9541176,44.1624734 C33.9541176,39.6899547 35.211458,36.0645582 37.7261765,33.2861754 C40.2408949,30.5077925 43.5099799,29.1186219 47.5335294,29.1186219 C51.4900198,29.1186219 54.7255757,30.5077925 57.2402941,33.2861754 C59.7550126,36.0645582 61.0123529,39.6899547 61.0123529,44.1624734 C61.0123529,48.6349921 59.7550126,52.2603886 57.2402941,55.0387714 C56.9073429,55.4066321 56.5617554,55.7501398 56.2035313,56.0692947 L66.2566567,66.12242 C68.9620733,64.0735635 71.1704303,61.5479735 72.8817647,58.5456152 C75.2958944,54.3102755 76.5029412,49.4481784 76.5029412,43.9591781 C76.5029412,38.4024124 75.2958944,33.5233742 72.8817647,29.3219172 C70.467635,25.1204602 67.0644337,21.8677681 62.6720588,19.5637433 C58.2796839,17.2597185 53.2335579,16.1077233 47.5335294,16.1077233 C41.7664418,16.1077233 36.6867867,17.2597185 32.2944118,19.5637433 C27.9020369,21.8677681 24.4988356,25.1204602 22.0847059,29.3219172 C19.6705762,33.5233742 18.4635294,38.4024124 18.4635294,43.9591781 C18.4635294,49.4481784 19.6705762,54.3102755 22.0847059,58.5456152 C23.8765493,61.6892183 26.21328,64.3101391 29.0949396,66.4084181 L39.1255016,56.3778561 Z" id="Combined-Shape"></path>
            </g>
            <path d="M138.485352,66.6591797 C141.87793,66.6591797 144.699219,66.1098633 146.949219,65.0112305 C149.199219,63.9125977 150.882324,62.2558594 151.998535,60.0410156 C153.114746,57.8261719 153.672852,54.3808594 153.672852,49.7050781 L153.672852,49.7050781 L153.672852,27.3457031 L148.53125,27.3457031 L148.53125,49.6259766 C148.53125,54.7060547 147.678711,58.0458984 145.973633,59.6455078 C144.268555,61.2451172 141.772461,62.0449219 138.485352,62.0449219 C135.198242,62.0449219 132.702148,61.2451172 130.99707,59.6455078 C129.291992,58.0458984 128.439453,54.7060547 128.439453,49.6259766 L128.439453,49.6259766 L128.439453,27.3457031 L123.324219,27.3457031 L123.324219,49.7050781 C123.324219,52.8164062 123.618652,55.5498047 124.20752,57.9052734 C124.796387,60.2607422 126.202637,62.3085938 128.42627,64.0488281 C130.649902,65.7890625 134.00293,66.6591797 138.485352,66.6591797 Z M171.655273,66.6591797 C175.083008,66.6591797 177.812012,65.8198242 179.842285,64.1411133 C181.872559,62.4624023 182.887695,60.3486328 182.887695,57.7998047 C182.887695,55.1279297 182.065918,53.2470703 180.422363,52.1572266 C178.778809,51.0673828 176.265137,50.1137695 172.881348,49.2963867 C169.497559,48.4790039 167.383789,47.8286133 166.540039,47.3452148 C165.696289,46.8618164 165.274414,46.0751953 165.274414,44.9853516 C165.274414,43.7724609 165.82373,42.8496094 166.922363,42.2167969 C168.020996,41.5839844 169.405273,41.2675781 171.075195,41.2675781 C174.854492,41.2675781 176.832031,42.5859375 177.007812,45.2226562 L177.007812,45.2226562 L181.964844,45.2226562 C181.806641,40.0019531 178.0625,37.3916016 170.732422,37.3916016 C167.568359,37.3916016 165.041504,38.1518555 163.151855,39.6723633 C161.262207,41.1928711 160.317383,43.1132812 160.317383,45.4335938 C160.317383,48 161.077637,49.7929688 162.598145,50.8125 C164.118652,51.8320312 166.526855,52.7548828 169.822754,53.5810547 C173.118652,54.4072266 175.293945,55.0795898 176.348633,55.5981445 C177.40332,56.1166992 177.930664,57.0087891 177.930664,58.2744141 C177.930664,59.5576172 177.390137,60.6254883 176.309082,61.4780273 C175.228027,62.3305664 173.65918,62.7568359 171.602539,62.7568359 C166.99707,62.7568359 164.676758,61.0517578 164.641602,57.6416016 L164.641602,57.6416016 L159.658203,57.6416016 C160.009766,63.6533203 164.008789,66.6591797 171.655273,66.6591797 Z M200.553711,66.6591797 C203.75293,66.6591797 206.464355,65.8769531 208.687988,64.3125 C210.911621,62.7480469 212.216797,60.5244141 212.603516,57.6416016 L212.603516,57.6416016 L207.461914,57.6416016 C207.391602,59.2763672 206.657715,60.5375977 205.260254,61.425293 C203.862793,62.3129883 202.293945,62.7568359 200.553711,62.7568359 C198.250977,62.7568359 196.312988,61.9746094 194.739746,60.4101562 C193.166504,58.8457031 192.274414,56.4462891 192.063477,53.2119141 L192.063477,53.2119141 L213.130859,53.2119141 L213.130859,52.0253906 C213.130859,47.3671875 211.939941,43.7636719 209.558105,41.2148438 C207.17627,38.6660156 203.990234,37.3916016 200,37.3916016 C196.097656,37.3916016 192.937988,38.6879883 190.520996,41.2807617 C188.104004,43.8735352 186.895508,47.4550781 186.895508,52.0253906 C186.895508,56.6308594 188.143555,60.2211914 190.639648,62.7963867 C193.135742,65.371582 196.44043,66.6591797 200.553711,66.6591797 Z M207.883789,49.3095703 L192.168945,49.3095703 C192.555664,46.6025391 193.460938,44.5854492 194.884766,43.2583008 C196.308594,41.9311523 198.013672,41.2675781 200,41.2675781 C202.039062,41.2675781 203.761719,41.9355469 205.167969,43.2714844 C206.574219,44.6074219 207.479492,46.6201172 207.883789,49.3095703 L207.883789,49.3095703 Z M223.677734,66 L223.677734,46.2246094 C225.488281,43.5703125 227.65918,42.2431641 230.19043,42.2431641 C231.508789,42.2431641 232.519531,42.3486328 233.222656,42.5595703 L233.222656,42.5595703 L233.222656,37.6025391 C232.414062,37.4619141 231.658203,37.3916016 230.955078,37.3916016 C228.195312,37.3916016 225.769531,38.9033203 223.677734,41.9267578 L223.677734,41.9267578 L223.677734,38.0244141 L218.694336,38.0244141 L218.694336,66 L223.677734,66 Z M242.503906,66 L242.503906,41.9267578 L247.803711,41.9267578 L247.803711,38.0244141 L242.503906,38.0244141 L242.503906,35.5986328 C242.503906,33.9287109 242.79834,32.7553711 243.387207,32.0786133 C243.976074,31.4018555 244.876953,31.0634766 246.089844,31.0634766 C247.109375,31.0634766 248.111328,31.1513672 249.095703,31.3271484 L249.095703,31.3271484 L249.095703,27.0029297 C248.216797,26.7919922 246.977539,26.6865234 245.37793,26.6865234 C240.157227,26.6865234 237.546875,29.6396484 237.546875,35.5458984 L237.546875,35.5458984 L237.546875,38.0244141 L233.433594,38.0244141 L233.433594,41.9267578 L237.546875,41.9267578 L237.546875,66 L242.503906,66 Z M263.017578,66.6591797 C267.007812,66.6591797 270.193848,65.3803711 272.575684,62.8227539 C274.95752,60.2651367 276.148438,56.6660156 276.148438,52.0253906 C276.148438,47.3671875 274.95752,43.7636719 272.575684,41.2148438 C270.193848,38.6660156 267.007812,37.3916016 263.017578,37.3916016 C259.044922,37.3916016 255.867676,38.6660156 253.48584,41.2148438 C251.104004,43.7636719 249.913086,47.3671875 249.913086,52.0253906 C249.913086,56.6660156 251.104004,60.2651367 253.48584,62.8227539 C255.867676,65.3803711 259.044922,66.6591797 263.017578,66.6591797 Z M263.017578,62.7568359 C260.644531,62.7568359 258.719727,61.855957 257.243164,60.0541992 C255.766602,58.2524414 255.02832,55.5761719 255.02832,52.0253906 C255.02832,48.4570312 255.766602,45.7719727 257.243164,43.9702148 C258.719727,42.168457 260.644531,41.2675781 263.017578,41.2675781 C265.390625,41.2675781 267.31543,42.168457 268.791992,43.9702148 C270.268555,45.7719727 271.006836,48.4570312 271.006836,52.0253906 C271.006836,55.5761719 270.268555,58.2524414 268.791992,60.0541992 C267.31543,61.855957 265.390625,62.7568359 263.017578,62.7568359 Z M286.695312,66 L286.695312,46.2246094 C288.505859,43.5703125 290.676758,42.2431641 293.208008,42.2431641 C294.526367,42.2431641 295.537109,42.3486328 296.240234,42.5595703 L296.240234,42.5595703 L296.240234,37.6025391 C295.431641,37.4619141 294.675781,37.3916016 293.972656,37.3916016 C291.212891,37.3916016 288.787109,38.9033203 286.695312,41.9267578 L286.695312,41.9267578 L286.695312,38.0244141 L281.711914,38.0244141 L281.711914,66 L286.695312,66 Z M310.188477,77.3378906 C318.30957,77.3378906 322.370117,72.8378906 322.370117,63.8378906 L322.370117,63.8378906 L322.370117,38.0244141 L317.413086,38.0244141 L317.413086,40.1865234 C315.321289,38.3232422 312.763672,37.3916016 309.740234,37.3916016 C306.347656,37.3916016 303.530762,38.7231445 301.289551,41.3862305 C299.04834,44.0493164 297.927734,47.6660156 297.927734,52.2363281 C297.927734,56.6484375 298.929688,60.1552734 300.933594,62.7568359 C302.9375,65.3583984 305.767578,66.6591797 309.423828,66.6591797 C312.535156,66.6591797 315.198242,65.3232422 317.413086,62.6513672 L317.413086,62.6513672 L317.413086,64.0488281 C317.413086,67.7753906 316.780273,70.2758789 315.514648,71.550293 C314.249023,72.824707 312.456055,73.4619141 310.135742,73.4619141 C306.022461,73.4619141 303.96582,71.9326172 303.96582,68.8740234 L303.96582,68.8740234 L298.824219,68.8740234 C298.824219,71.4580078 299.839355,73.5146484 301.869629,75.0439453 C303.899902,76.5732422 306.672852,77.3378906 310.188477,77.3378906 Z M309.845703,62.7568359 C307.71875,62.7568359 306.053223,61.8647461 304.849121,60.0805664 C303.64502,58.2963867 303.042969,55.6816406 303.042969,52.2363281 C303.042969,48.5976562 303.680176,45.8598633 304.95459,44.0229492 C306.229004,42.1860352 307.929688,41.2675781 310.056641,41.2675781 C312.816406,41.2675781 315.268555,42.4013672 317.413086,44.6689453 L317.413086,44.6689453 L317.413086,57.9580078 C315.145508,61.1572266 312.623047,62.7568359 309.845703,62.7568359 Z M341.618164,66.6591797 C344.817383,66.6591797 347.528809,65.8769531 349.752441,64.3125 C351.976074,62.7480469 353.28125,60.5244141 353.667969,57.6416016 L353.667969,57.6416016 L348.526367,57.6416016 C348.456055,59.2763672 347.722168,60.5375977 346.324707,61.425293 C344.927246,62.3129883 343.358398,62.7568359 341.618164,62.7568359 C339.31543,62.7568359 337.377441,61.9746094 335.804199,60.4101562 C334.230957,58.8457031 333.338867,56.4462891 333.12793,53.2119141 L333.12793,53.2119141 L354.195312,53.2119141 L354.195312,52.0253906 C354.195312,47.3671875 353.004395,43.7636719 350.622559,41.2148438 C348.240723,38.6660156 345.054688,37.3916016 341.064453,37.3916016 C337.162109,37.3916016 334.002441,38.6879883 331.585449,41.2807617 C329.168457,43.8735352 327.959961,47.4550781 327.959961,52.0253906 C327.959961,56.6308594 329.208008,60.2211914 331.704102,62.7963867 C334.200195,65.371582 337.504883,66.6591797 341.618164,66.6591797 Z M348.948242,49.3095703 L333.233398,49.3095703 C333.620117,46.6025391 334.525391,44.5854492 335.949219,43.2583008 C337.373047,41.9311523 339.078125,41.2675781 341.064453,41.2675781 C343.103516,41.2675781 344.826172,41.9355469 346.232422,43.2714844 C347.638672,44.6074219 348.543945,46.6201172 348.948242,49.3095703 L348.948242,49.3095703 Z" id="Userforge" fill="#242739"></path>
        </g>
    </g>
</svg>